<?xml version="1.0" standalone="no"?><!DOCTYPE svg PUBLIC "-//W3C//DTD SVG 1.1//EN" "http://www.w3.org/Graphics/SVG/1.1/DTD/svg11.dtd"><svg t="1749106804381" class="icon" viewBox="0 0 1025 1024" version="1.1" xmlns="http://www.w3.org/2000/svg" p-id="21803" xmlns:xlink="http://www.w3.org/1999/xlink" width="200.1953125" height="200"><path d="M1.706667 0h1024v1024H1.706667z" fill="#2E2C2F" p-id="21804"></path><path d="M307.862187 555.677013l38.34368 13.202774c-13.19936 47.77472-22.00064 70.40512-38.971734 106.23488-13.830827 28.91264-22.00064 42.115413-42.745173 69.771946l-35.82976-25.775786c22.00064-24.512853 30.17216-37.08416 43.373227-62.85824 17.600853-33.312427 25.14432-54.683307 35.82976-100.575574z m-13.201067-103.673173v-153.378133c0-27.02848-0.628053-44.00128-2.515627-60.972374 16.34304 2.51392 34.573653 3.141973 59.088214 3.141974H668.0064c24.512853 0 42.743467-0.628053 59.086507-3.141974-1.88416 16.34304-2.51392 32.058027-2.51392 60.972374v153.378133c0 26.400427 0.62976 42.115413 2.51392 58.4192-18.230613-2.471253-37.085867-3.10272-59.086507-3.10272H350.605653c-21.998933 0-40.855893 1.256107-58.458453 3.10272 1.885867-16.93184 2.51392-33.90464 2.51392-58.4192z m230.029653 20.744533h161.542827v-83.60448h-161.542827v83.60448z m0-117.548373h161.542827v-79.83104h-161.542827v79.83104z m-191.684266 117.548373h154.632533v-83.60448h-154.632533v83.60448z m0-117.548373h154.632533v-79.83104h-154.632533v79.83104z m144.576853 196.082347l29.540693-20.744534c36.462933 34.573653 58.422613 59.712853 90.478934 104.3456l-32.05632 25.14432c-27.0336-45.88544-48.402773-72.915627-87.963307-108.745386z m-43.999573 57.828693v89.260373c0 23.888213 10.68032 27.026773 91.106986 27.026774 72.91392 0 95.5392-3.13856 104.97024-15.085227 6.28736-8.797867 9.42592-28.286293 11.32032-72.287573 13.824 8.173227 23.253333 11.94496 38.966614 15.714986-6.28736 61.60384-11.93984 81.716907-27.656534 92.407467-16.34304 11.941547-52.169387 16.341333-135.14752 16.341333-104.9344 0-123.16672-8.173227-123.16672-55.942826v-97.4336c0-32.684373-0.626347-42.745173-3.76832-57.8304h47.14496c-3.145387 16.96768-3.770027 27.656533-3.770026 57.828693z m261.4528-57.828693c42.743467 52.800853 71.02976 96.802133 103.71584 162.174293l-35.82976 24.517973c-30.173867-72.28928-53.430613-111.261013-98.689707-167.835306l30.803627-18.85696z" fill="#FFFFFF" p-id="21805"></path></svg>