<?xml version="1.0" standalone="no"?><!DOCTYPE svg PUBLIC "-//W3C//DTD SVG 1.1//EN" "http://www.w3.org/Graphics/SVG/1.1/DTD/svg11.dtd"><svg t="1749106927449" class="icon" viewBox="0 0 1024 1024" version="1.1" xmlns="http://www.w3.org/2000/svg" p-id="27097" xmlns:xlink="http://www.w3.org/1999/xlink" width="200" height="200"><path d="M207.7 821.1c-10.2 0-18.5 8.3-18.5 18.5v8.8c0 10.1 8.3 18.5 18.5 18.5l609.9 2.3c10.2 0 18.5-8.3 18.5-18.5v-11.1c0-10.1-8.3-18.5-18.5-18.5H207.7z m0 0" p-id="27098"></path><path d="M911.7 153.1c-12.9 0-23.5 10.6-23.5 23.5V893c0 10.2-8.3 18.5-18.5 18.5l-668.9-5.1c-35.5 0-64.6-28.1-66-63.7v-6.5c2.3-35.1 30.9-62.7 66.4-62.7h616.3c10.2 0 18.5-8.3 18.5-18.5V81.6c0-10.2-8.3-18.5-18.5-18.5H201.2c-62.7 0-113 50.7-113 113 0 60-0.5 589.6 0 659.3v4.1c0 60 47.1 109.3 106.1 113 1.4 0 2.3 0.5 3.7 0.5l718.8 5.1c10.2 0 18.5-8.3 18.5-18.5V176.1c-0.1-12.9-10.7-23-23.6-23z m-694.8 23c0-12.9 10.6-23.5 23.5-23.5s23.5 10.6 23.5 23.5v476.6c0 12.9-10.6 23.5-23.5 23.5s-23.5-10.6-23.5-23.5V176.1z m0 0" p-id="27099"></path></svg>