<?xml version="1.0" standalone="no"?><!DOCTYPE svg PUBLIC "-//W3C//DTD SVG 1.1//EN" "http://www.w3.org/Graphics/SVG/1.1/DTD/svg11.dtd"><svg t="1749106952816" class="icon" viewBox="0 0 1024 1024" version="1.1" xmlns="http://www.w3.org/2000/svg" p-id="28998" xmlns:xlink="http://www.w3.org/1999/xlink" width="200" height="200"><path d="M1013.998848 523.79309c0-34.772145-2.815904-69.757617-8.831698-104.017779H522.23965v197.155931h276.555884a236.96257 236.96257 0 0 1-102.353836 155.600017v127.910296h164.986363c96.892689-89.170287 152.570787-220.877787 152.570787-376.648465z" fill="#4285F4" p-id="28999"></path><path d="M522.23965 1024c138.107281 0 254.540637-45.310452 339.401737-123.558445l-164.986363-127.910296c-45.907765 31.188268-105.16974 48.894329-174.202048 48.894329-133.584769 0-246.860899-90.108921-287.478178-211.278115h-170.234183v131.878161a512.067838 512.067838 0 0 0 457.499035 282.017031z" fill="#34A853" p-id="29000"></path><path d="M234.804138 610.147473a306.677522 306.677522 0 0 1 0-196.00397V282.265343H64.740615a512.409159 512.409159 0 0 0 0 459.760291l170.063523-131.835495z" fill="#FBBC04" p-id="29001"></path><path d="M522.23965 202.694728a278.177162 278.177162 0 0 1 196.387957 76.754711l146.213671-146.171006A492.057855 492.057855 0 0 0 522.23965 0.034985 511.897177 511.897177 0 0 0 64.740615 282.265343l170.063523 131.835495C275.20809 292.846314 388.654881 202.694728 522.23965 202.694728z" fill="#EA4335" p-id="29002"></path></svg>