<?xml version="1.0" standalone="no"?><!DOCTYPE svg PUBLIC "-//W3C//DTD SVG 1.1//EN" "http://www.w3.org/Graphics/SVG/1.1/DTD/svg11.dtd"><svg t="1749107264209" class="icon" viewBox="0 0 1024 1024" version="1.1" xmlns="http://www.w3.org/2000/svg" p-id="37748" xmlns:xlink="http://www.w3.org/1999/xlink" width="200" height="200"><path d="M259.84 453.632a76.8 76.8 0 0 1 76.8 76.8v204.8a76.8 76.8 0 1 1-153.6 0v-204.8a76.8 76.8 0 0 1 76.8-76.8z m256 0a76.8 76.8 0 0 1 76.8 76.8v204.8a76.8 76.8 0 1 1-153.6 0v-204.8a76.8 76.8 0 0 1 76.8-76.8z m256 0a76.8 76.8 0 0 1 76.8 76.8v204.8a76.8 76.8 0 1 1-153.6 0v-204.8a76.8 76.8 0 0 1 76.8-76.8z m-588.8 409.6h665.6a76.8 76.8 0 1 1 0 153.6h-665.6a76.8 76.8 0 0 1 0-153.6zM547.7888 18.432l366.08 292.8128a51.2 51.2 0 0 1-32 91.136H149.76a51.2 51.2 0 0 1-31.9488-91.136L483.84 18.3808a51.2 51.2 0 0 1 64 0z" fill="#1E1E27" p-id="37749"></path></svg>