<?xml version="1.0" standalone="no"?><!DOCTYPE svg PUBLIC "-//W3C//DTD SVG 1.1//EN" "http://www.w3.org/Graphics/SVG/1.1/DTD/svg11.dtd"><svg t="1749106283994" class="icon" viewBox="0 0 1024 1024" version="1.1" xmlns="http://www.w3.org/2000/svg" p-id="6105" xmlns:xlink="http://www.w3.org/1999/xlink" width="200" height="200"><path d="M484.620321 961.71123c-37.920856-6.297326-70.776471-23.409626-113.625669-59.277005-11.91016-10.130481-59.687701-57.497326-67.901604-67.490909-6.981818-8.487701-9.172193-13.552941-6.023529-13.552942 0.82139 0 15.195722 5.475936 31.897326 12.047059 38.468449 15.469519 47.366845 18.481283 73.514438 25.052407 43.259893 10.951872 74.746524 14.237433 123.75615 13.142246 74.883422-1.779679 110.613904-9.582888 187.687701-41.206418 22.725134-9.309091 26.695187-10.404278 26.695187-7.118716 0 5.475936-64.616043 69.95508-88.983957 88.847059-31.897326 24.641711-62.425668 39.700535-97.060963 47.640641-15.743316 3.696257-53.390374 4.654545-69.95508 1.916578z" fill="#EA6311" p-id="6106"></path><path d="M483.251337 838.502674c-1.095187-0.273797-12.183957-2.190374-24.641711-4.106952-63.11016-10.130481-115.542246-29.706952-160.718717-59.824599-68.312299-45.587166-124.440642-113.48877-152.504813-184.539037-14.51123-36.414973-22.451337-65.71123-26.42139-96.513369-2.464171-18.481283-2.464171-91.995722 0-112.941177 3.696257-31.760428 11.362567-63.931551 19.302674-81.317647 2.190374-5.065241 4.106952-9.719786 4.106952-10.541176 0-2.874866 14.648128-34.087701 22.99893-49.146524 35.593583-63.794652 87.614973-116.637433 148.808556-151.272728 9.035294-5.065241 18.344385-10.404278 20.808556-11.773262 9.445989-5.339037 41.480214-18.891979 53.80107-22.862032 28.064171-8.898396 75.431016-19.302674 94.459893-20.534759 19.987166-1.505882 78.168984 0.547594 91.721925 3.011764 49.967914 9.309091 97.334759 25.189305 132.791444 44.218182 15.058824 8.213904 38.879144 23.272727 49.694118 31.486631 37.236364 28.474866 81.04385 75.020321 98.97754 105.274867 3.42246 5.886631 8.213904 13.416043 10.404278 16.701604 2.190374 3.148663 5.886631 9.582888 8.077005 14.374331 2.327273 4.654545 4.654545 9.445989 5.202139 10.541177 1.779679 3.148663 7.940107 18.070588 14.785027 35.593583 11.91016 30.802139 21.082353 68.449198 23.546524 96.787166 1.916578 21.082353 1.916578 61.604278 0.136898 85.424599-5.475936 68.586096-36.278075 146.207487-81.591444 205.210695-18.618182 24.231016-33.950802 40.11123-60.50909 63.11016-24.77861 21.35615-40.795722 31.349733-52.158289 32.44492-5.475936 0.410695-7.118717 0-10.678075-3.011765-2.327273-2.053476-6.297326-7.118717-8.761497-11.499465-14.921925-26.147594-25.6-46.271658-42.438503-79.264171-17.522995-34.224599-19.028877-37.920856-19.028877-44.628877 0-6.297326 0.82139-8.624599 5.612834-16.154011 3.148663-4.791444 13.826738-17.112299 23.683423-27.242781 18.070588-18.481283 28.885561-31.897326 38.057754-47.229946 23.683422-39.563636 33.26631-80.359358 29.84385-127.589305-2.327273-32.718717-8.487701-55.854545-22.314439-83.508021-25.189305-50.241711-62.014973-85.013904-112.393583-106.370054-15.880214-6.84492-31.623529-11.362567-53.527272-15.33262-17.386096-3.285561-55.991444-3.148663-72.55615 0.136898-6.023529 1.095187-13.963636 2.60107-17.796791 3.285562-8.487701 1.505882-30.939037 9.856684-43.807487 16.15401-12.731551 6.434225-35.045989 20.945455-45.176471 29.433156-38.742246 32.581818-67.080214 81.317647-76.115508 131.148663-5.339037 29.02246-3.011765 74.19893 5.065241 102.263101 8.761497 30.117647 27.242781 63.657754 47.503743 86.109091 10.26738 11.362567 30.528342 30.665241 32.034225 30.665241 0.547594-0.136898 4.106952-4.517647 7.803208-9.993583s15.058824-22.17754 25.463102-37.236364l41.069519-60.235294c34.772193-51.2 45.313369-63.657754 53.527272-63.657754 4.791444 0 9.993583 4.928342 11.362567 10.678075 1.779679 7.255615 3.833155 177.694118 3.148663 269.963636-0.547594 85.698396-0.684492 94.322995-2.874866 98.840642-2.464171 5.065241-8.213904 10.130481-14.648128 13.005348-3.696257 1.642781-19.713369 3.285561-23.135829 2.464171z" fill="#EA6311" p-id="6107"></path></svg>