<?xml version="1.0" standalone="no"?><!DOCTYPE svg PUBLIC "-//W3C//DTD SVG 1.1//EN" "http://www.w3.org/Graphics/SVG/1.1/DTD/svg11.dtd"><svg t="1749107250901" class="icon" viewBox="0 0 1024 1024" version="1.1" xmlns="http://www.w3.org/2000/svg" p-id="37605" xmlns:xlink="http://www.w3.org/1999/xlink" width="200" height="200"><path d="M654.592 182.869333h-104.789333V85.333333a42.666667 42.666667 0 0 0-41.813334-42.666666h-0.853333a42.666667 42.666667 0 0 0-42.666667 42.666666v97.536H366.08c-15.616 0-28.288 11.946667-28.288 26.752v177.877334H250.538667c-15.616 0-28.288 11.946667-28.288 26.752v168.576H87.509333c-15.616 0-28.288 11.946667-28.288 26.752v119.210666a26.709333 26.709333 0 0 0-16.554666 24.32v200.96c0 14.805333 12.672 26.752 28.288 26.752h11.093333A30.293333 30.293333 0 0 0 87.466667 981.333333h451.626666a29.952 29.952 0 0 0 5.461334-0.512h408.448c15.616 0 28.288-11.946667 28.288-26.709333v-200.96c0-14.805333-12.672-26.752-28.288-26.752h-170.88v-117.333333c0-14.762667-12.672-26.752-28.288-26.752h-70.997334V209.621333c0-14.762667-12.672-26.752-28.288-26.752zM349.44 923.861333a42.666667 42.666667 0 0 1-42.666667-42.666666V489.386667a42.666667 42.666667 0 1 1 85.333334 0v391.850666a42.666667 42.666667 0 0 1-42.666667 42.666667z m313.6 0a42.666667 42.666667 0 0 1-42.666667-42.666666v-200.021334a42.666667 42.666667 0 0 1 85.333334 0v200.021334a42.666667 42.666667 0 0 1-42.666667 42.666666z" p-id="37606"></path></svg>