<?xml version="1.0" standalone="no"?><!DOCTYPE svg PUBLIC "-//W3C//DTD SVG 1.1//EN" "http://www.w3.org/Graphics/SVG/1.1/DTD/svg11.dtd"><svg t="1749107216382" class="icon" viewBox="0 0 1640 1024" version="1.1" xmlns="http://www.w3.org/2000/svg" p-id="35606" xmlns:xlink="http://www.w3.org/1999/xlink" width="320.3125" height="200"><path d="M800.13822 29.280108c45.240637 0 83.247365 30.657995 94.614936 72.339089h679.872617L1437.870447 0H162.405993l-136.755326 101.619197h679.872617c11.367571-41.681094 49.374299-72.339089 94.614936-72.339089zM1574.740597 1024H25.650667l136.755326-131.93272H1437.870447zM890.045374 166.954026c-15.156762 34.562009-49.718771 58.675039-89.907154 58.675039s-74.635569-24.11303-89.907154-58.675039H198.92001v668.849517h156.275398V327.248262c0-29.280108 23.768558-52.933842 52.933842-52.933842S461.177915 297.968154 461.177915 327.248262v508.555281h90.021978V327.248262c0-29.280108 23.768558-52.933842 52.933842-52.933842S657.067577 298.082978 657.067577 327.248262v508.555281h90.021978V327.248262c0-29.280108 23.768558-52.933842 52.933841-52.933842 29.280108 0 52.933842 23.768558 52.933842 52.933842v508.555281H942.979216V327.248262c0-29.280108 23.768558-52.933842 52.933842-52.933842 29.280108 0 52.933842 23.768558 52.933841 52.933842v508.555281h90.021978V327.248262c0-29.280108 23.768558-52.933842 52.933842-52.933842 29.280108 0 52.933842 23.768558 52.933842 52.933842v508.555281h156.275398V166.954026h-510.966585z" fill="#595757" p-id="35607"></path></svg>