<?xml version="1.0" standalone="no"?><!DOCTYPE svg PUBLIC "-//W3C//DTD SVG 1.1//EN" "http://www.w3.org/Graphics/SVG/1.1/DTD/svg11.dtd"><svg t="1749107365113" class="icon" viewBox="0 0 1024 1024" version="1.1" xmlns="http://www.w3.org/2000/svg" p-id="43615" xmlns:xlink="http://www.w3.org/1999/xlink" width="200" height="200"><path d="M930.41 397.08c0.04-41.06-22.91-78.68-59.45-97.41L564.82 140.93a109.796 109.796 0 0 0-100.96 0L157.51 299.67c-36.34 18.9-59.13 56.45-59.13 97.41 0 40.95 22.79 78.51 59.13 97.41l63.69 32.99v240.99c-0.02 13.85 9.06 26.07 22.32 30.07l227.55 117.9a94.072 94.072 0 0 0 86.58 0l227.5-117.9c13.28-3.97 22.38-16.2 22.38-30.07V527.49l60.13-31.37V634c0 17.33 14.05 31.37 31.37 31.37S930.4 651.33 930.4 634l0.01-236.92zM744.8 748.82l-216 111.94a31.357 31.357 0 0 1-28.86 0l-216-111.94V560.01l179.92 93.28a109.796 109.796 0 0 0 100.96 0l179.97-93.28 0.01 188.81z m97.51-310.01L535.96 597.55a47.082 47.082 0 0 1-43.24 0L186.38 438.81a47.054 47.054 0 0 1-25.5-41.83c0-17.62 9.84-33.76 25.5-41.83l306.35-158.53a47.022 47.022 0 0 1 43.24 0l306.35 158.74a47.054 47.054 0 0 1 25.5 41.83c0 17.62-9.84 33.76-25.5 41.83v-0.21h-0.01z" fill="#C74339" p-id="43616"></path></svg>