<?xml version="1.0" standalone="no"?><!DOCTYPE svg PUBLIC "-//W3C//DTD SVG 1.1//EN" "http://www.w3.org/Graphics/SVG/1.1/DTD/svg11.dtd"><svg t="1749107383576" class="icon" viewBox="0 0 2004 1024" version="1.1" xmlns="http://www.w3.org/2000/svg" p-id="44595" xmlns:xlink="http://www.w3.org/1999/xlink" width="391.40625" height="200"><path d="M2003.904712 495.995044c-0.313247-8.894252-0.877091-16.976021-1.628883-24.993182l0.125299 1.691533v-0.313247a497.966542 497.966542 0 0 0-83.813108-236.785243l1.127689 1.762014a524.854867 524.854867 0 0 0-72.224932-86.632329l-0.195779-0.125299a525.984514 525.984514 0 0 0-133.864079-93.022564l-3.132468-1.370455C1637.196427 21.001243 1551.376583 0.393516 1460.679876 0.393516h-7.766564a612.458261 612.458261 0 0 0-214.362643 38.443219l4.260157-1.370455a528.03628 528.03628 0 0 0-153.283425 84.06762l1.127689-0.877091c-10.272539 8.393057-19.356697 16.286878-28.125651 24.491987l0.313247-0.313247-7.079378 7.079379-9.771344 10.460486h0.06265l-4.698703 4.573404-2.192728 2.318027-11.776123 12.277318c-8.706304 9.771344-16.850722 19.544645-24.742585 29.128041v-0.19578l-0.313247-0.250597a505.502086 505.502086 0 0 0-41.781255 57.880184c-7.455275 11.713474-14.720644 23.614896-21.612074 35.643575l-95.781094 193.68052 0.195779 0.06265-5.011949 9.833993-10.523136 21.361476c-20.98558 42.533047-43.535437 84.942754-68.593227 119.832578-56.126002 61.576497-119.519331 91.706928-200.95372 91.706928-5.701092 0-11.588175-0.250597-17.477216-0.689143-49.111231-1.94213-91.205733-13.530306-128.54084-35.643575a216.349803 216.349803 0 0 1-82.436779-84.880104l-0.563844-1.127689a219.247336 219.247336 0 0 1-27.373858-106.803467c0-2.631273 0.062649-5.325196 0.125298-7.954512v0.375896l0.19578-2.819221c2.568624-63.455978 26.810014-112.943105 75.482699-155.413504a251.509802 251.509802 0 0 1 37.272458-26.747364c1.762013-1.065039 3.696313-2.00478 5.450495-3.00717 36.270068-19.795242 77.42483-29.629235 124.59393-29.629235l14.720644 0.438545c75.106803 2.819222 132.986988 26.246169 179.155656 72.099634l144.812055-260.016412a563.744462 563.744462 0 0 0-112.943105-58.007441l-3.94691-1.315637c-1.566234-0.563844-3.328248-1.315637-5.01195-1.816832-5.199898-1.816832-10.272539-3.758962-15.535085-5.450495a601.042372 601.042372 0 0 0-141.066798-28.938134l-2.255378-0.125299c-3.633663-0.438546-4.9493-0.626494-6.264936-0.751792l2.443325 0.250597c-7.580573-0.438546-15.347137-1.315637-22.99036-1.691533-7.016729-0.313247-15.723034-0.501195-24.429338-0.563844h-8.14246a582.783997 582.783997 0 0 0-253.199378 57.514077l3.508365-1.503584a519.970174 519.970174 0 0 0-207.780544 179.020568l-1.190338 1.879481A496.956321 496.956321 0 0 0 0.003994 516.103534v3.195117c-0.195779 130.606312 47.41774 245.370164 142.069188 341.834529 98.911605 101.166982 227.262539 155.664101 381.425013 162.116985 9.833993 0.438546 19.607294 0.689143 29.503937 0.689143 87.258822 0 167.941419-15.535085 240.356257-46.605256a563.748378 563.748378 0 0 0 53.620027-26.870705c9.771344-5.575794 19.04345-11.588175 28.25095-17.978411l6.703482-4.573404 11.462877-7.768521a452.614273 452.614273 0 0 0 39.02664-31.821964l4.322806-4.197507c7.328018-6.95408 14.720644-14.031501 21.612074-21.298827l25.995573-29.378638 9.833992-12.334095 4.698703-6.766131 4.573404-6.578184c38.586137-64.830349 164.119808-300.744374 164.119808-300.744374v-0.501195l7.517924-14.344748 6.202287-11.274928c18.542255-33.638795 31.884613-57.559107 49.612426-82.687376l0.501195-0.814442c41.156719-59.88888 112.250047-102.484577 195.939813-109.687296 140.316964-12.091328 263.28201 80.110921 274.560854 205.901062 11.274928 125.846917-93.273162 237.724984-233.715424 249.814354-7.329976 0.689143-15.785683 1.065039-24.366688 1.065039a284.06398 284.06398 0 0 1-61.952394-6.766131l1.879481 0.375896-0.751792 0.250597c-102.92508-21.484818-168.44653-96.466322-200.769688-130.112947l-135.056375 248.381249s42.031852 42.288323 70.721348 63.393329a546.165441 546.165441 0 0 0 95.716487 54.818197c69.846214 31.070171 151.337379 49.17388 237.03584 49.17388 10.08459 0 8.079811 0 18.542255-0.438545 154.035217-6.460716 291.407661-65.460758 390.444565-166.625783 93.778272-96.029734 144.765069-205.715072 145.140965-335.565676v-3.958657z" fill="#2A73CC" p-id="44596"></path></svg>