<?xml version="1.0" standalone="no"?><!DOCTYPE svg PUBLIC "-//W3C//DTD SVG 1.1//EN" "http://www.w3.org/Graphics/SVG/1.1/DTD/svg11.dtd"><svg t="1749109623134" class="icon" viewBox="0 0 1024 1024" version="1.1" xmlns="http://www.w3.org/2000/svg" p-id="46539" xmlns:xlink="http://www.w3.org/1999/xlink" width="200" height="200"><path d="M512 512m-480 0a480 480 0 1 0 960 0 480 480 0 1 0-960 0Z" fill="#ED762E" p-id="46540"></path><path d="M160 464.512c11.264-16.64 21.024-34.24 29.184-52.608 8.32-19.328 15.584-39.104 21.728-59.2l45.312 11.84c8.128 2.24 10.336 6.784 6.272 13.76-5.76 9.184-12.384 17.76-19.84 25.6a302.4 302.4 0 0 1-26.336 24.64A262.208 262.208 0 0 1 160 464.48z m0 93.472a592.832 592.832 0 0 0 69.76-132.864l44.448 17.152c4.064 1.536 6.272 3.392 6.592 5.76a11.872 11.872 0 0 1-2.208 8.32 189.28 189.28 0 0 1-21.184 28.352c-8.608 9.44-17.728 18.368-27.328 26.784l34.272 4.416-10.88 10.368v154.56h-53.44v-145.76A252.576 252.576 0 0 1 160 557.984z m278.944-39.68v26.784h20.032l15.104-14.08 18.656 30.88h-53.952v51.264c0 17.12-3.04 31.36-8.832 43.072-5.76 11.712-14.24 20.032-25.28 24.8-5.6 2.688-10.688 3.712-15.104 2.88-4.416-0.864-8.48-3.744-12.384-8.32l-27.136-32.928c13.216 2.56 22.4 0.672 27.488-5.248 5.088-5.952 7.616-15.264 7.616-28.352V561.92H274.88l-8.48-16.64h119.104v-26.976H286.24l-8.48-16.64h166.624l14.944-14.08 18.816 30.912h-39.2v-0.192z m-148.48 57.856c10.144 0.224 20.16 2.048 29.728 5.44 8.416 2.784 16.416 6.784 23.744 11.84 6.272 4.608 10.336 9.184 12.224 14.08 1.856 4.928 0.512 8.832-4.256 12.064l-35.296 23.744c-1.184-5.6-2.88-11.712-4.576-18.144a175.808 175.808 0 0 0-6.432-18.848c-2.4-6.08-5.12-11.68-7.68-17.12a108.16 108.16 0 0 0-7.424-13.056zM291.2 486.4V352l67.36 7.808-13.76 11.52v0.192h64l8.96-12.736 53.632 18.848-12.736 17.12v87.904h-53.44v-11.872H344.64v15.424H291.2v0.192z m53.28-73.472h60.576v-24.64H344.448v24.64z m0 41.376h60.576v-24.768H344.448v24.768z m218.016 228.896a18.56 18.56 0 0 1-9.984 0.864 8.64 8.64 0 0 1-6.624-6.08l-14.944-51.616c9.344 0.672 20.032 1.024 31.552 1.024 11.552 0 24.096-0.512 37.504-1.536v-56h-53.12l-8.448-16.64h61.568V512l68.384 8.16-14.912 12.224v20.864h31.552l14.912-14.08 18.88 30.88H653.44v50.24c11.52-1.92 23.232-3.744 34.944-6.144 11.712-2.368 23.424-4.896 35.296-7.616-10.08 7.296-20.576 14.016-31.392 20.16-12.544 7.328-26.144 14.432-40.544 21.568-14.432 7.136-29.536 13.76-44.8 19.84-15.264 6.112-30.048 11.04-44.48 15.104z m0-167.968c-7.776 2.56-13.728-0.16-17.472-7.808l-12.896-45.984c2.912 0.544 5.888 0.864 8.832 1.024 3.072 0.32 6.112 0.512 9.152 0.672 5.76-12.16 10.816-24.608 15.104-37.312 4.416-12.896 8-24.8 10.688-35.488h-35.776l-8.16-16.64h157.44l15.648-13.728 18.144 30.56h-81.792c-3.392 5.248-7.616 10.848-12.544 17.12a482.816 482.816 0 0 1-34.272 38.528 307.872 307.872 0 0 1-19.36 17.824c13.92 0 28-0.704 42.592-2.048 14.592-1.344 29.184-3.392 44.128-6.08a257.824 257.824 0 0 0-11.872-22.752 181.92 181.92 0 0 0-12.224-17.984c7.808 2.688 16.128 5.92 24.256 9.472 8.032 3.52 15.872 7.456 23.424 11.904 6.88 3.968 13.44 8.448 19.68 13.408 5.12 3.84 9.664 8.48 13.408 13.728a21.92 21.92 0 0 1 4.224 12.896c-0.32 4.064-2.56 7.808-6.944 11.04l-35.808 24.096a317.152 317.152 0 0 0-4.736-19.36 237.184 237.184 0 0 0-6.976-21.216c-16.832 9.28-34.176 17.6-51.904 24.96-17.536 7.616-35.584 14.016-53.984 19.168z m231.616-106.56l-12.192 11.52v181.056H732.16v-202.24l61.92 9.664z m6.784-55.68l63.136 10.048-11.52 11.2v208.704c0 27.648-4.096 49.888-12.224 66.496a65.024 65.024 0 0 1-37.856 33.76c-5.248 1.888-9.824 2.56-13.76 1.536-3.872-1.024-7.776-4.224-11.84-9.664l-27.68-38.528c8.8 0.448 17.632-0.128 26.304-1.696a28.224 28.224 0 0 0 15.616-8.128c3.744-4.096 6.272-10.016 7.648-17.664 1.504-9.92 2.176-19.968 2.016-30.016l0.16-226.016z" fill="#000000" p-id="46541"></path></svg>