<?xml version="1.0" standalone="no"?><!DOCTYPE svg PUBLIC "-//W3C//DTD SVG 1.1//EN" "http://www.w3.org/Graphics/SVG/1.1/DTD/svg11.dtd"><svg t="1749197847876" class="icon" viewBox="0 0 1024 1024" version="1.1" xmlns="http://www.w3.org/2000/svg" p-id="4366" xmlns:xlink="http://www.w3.org/1999/xlink" width="200" height="200"><path d="M176.355556 409.6c-39.822222 0-56.888889 28.444444-56.888889 85.333333s17.066667 85.333333 56.888889 85.333334h17.066666c-5.688889-17.066667-17.066667-34.133333-34.133333-34.133334h-11.377778l-5.688889-11.377777c5.688889-5.688889 22.755556-11.377778 39.822222-11.377778 28.444444 0 39.822222 11.377778 51.2 28.444444 5.688889-11.377778 11.377778-34.133333 11.377778-56.888889-5.688889-56.888889-22.755556-85.333333-68.266666-85.333333zM568.888889 455.111111c-22.755556 0-34.133333 22.755556-34.133333 62.577778 0 39.822222 11.377778 62.577778 34.133333 62.577778 22.755556 0 34.133333-22.755556 34.133333-62.577778 0-39.822222-11.377778-62.577778-34.133333-62.577778z" fill="#B92B27" p-id="4367"></path><path d="M910.222222 0H113.777778C51.2 0 0 51.2 0 113.777778v796.444444c0 62.577778 51.2 113.777778 113.777778 113.777778h796.444444c62.577778 0 113.777778-51.2 113.777778-113.777778V113.777778c0-62.577778-51.2-113.777778-113.777778-113.777778zM256 637.155556c-28.444444 0-39.822222-17.066667-51.2-34.133334-11.377778 0-17.066667 5.688889-28.444444 5.688889-56.888889 0-108.088889-45.511111-108.088889-108.088889 0-62.577778 51.2-108.088889 108.088889-108.088889 56.888889 0 108.088889 45.511111 108.088888 108.088889 0 34.133333-17.066667 62.577778-39.822222 85.333334 5.688889 11.377778 17.066667 17.066667 28.444445 17.066666s17.066667-11.377778 17.066666-17.066666h17.066667c0 5.688889-5.688889 51.2-51.2 51.2z m227.555556-51.2l-62.577778 11.377777v-22.755555c-11.377778 17.066667-28.444444 22.755556-51.2 22.755555-28.444444 0-45.511111-11.377778-45.511111-51.2V472.177778c0-5.688889-5.688889-11.377778-11.377778-11.377778h-17.066667v-17.066667h68.266667v102.4c0 17.066667 11.377778 22.755556 22.755555 22.755556s28.444444-5.688889 34.133334-17.066667V472.177778c0-5.688889-5.688889-11.377778-11.377778-11.377778H398.222222v-17.066667h68.266667v108.088889c0 11.377778 5.688889 17.066667 17.066667 17.066667v17.066667z m85.333333 11.377777c-45.511111 0-79.644444-34.133333-79.644445-79.644444 0-45.511111 39.822222-79.644444 79.644445-79.644445 45.511111 0 79.644444 34.133333 79.644444 79.644445 5.688889 45.511111-34.133333 79.644444-79.644444 79.644444z m199.111111-113.777777c-11.377778 0-17.066667-11.377778-28.444444-11.377778s-17.066667 11.377778-17.066667 22.755555v56.888889c0 11.377778 5.688889 17.066667 17.066667 17.066667h11.377777v17.066667h-96.711111V568.888889h5.688889c17.066667 0 17.066667-5.688889 17.066667-17.066667V472.177778c0-5.688889-5.688889-11.377778-17.066667-11.377778h-11.377778v-17.066667h62.577778l5.688889 34.133334c5.688889-22.755556 22.755556-34.133333 39.822222-34.133334 11.377778 0 22.755556 5.688889 22.755556 22.755556 5.688889 5.688889 0 17.066667-11.377778 17.066667z m147.911111 113.777777c-17.066667 0-28.444444-11.377778-34.133333-22.755555-5.688889 17.066667-22.755556 28.444444-45.511111 28.444444-28.444444 0-45.511111-17.066667-45.511111-39.822222 0-51.2 68.266667-39.822222 91.022222-68.266667v-11.377777c0-28.444444-11.377778-28.444444-22.755556-28.444445-28.444444 0-17.066667 34.133333-45.511111 34.133333-11.377778 0-17.066667-5.688889-17.066667-17.066666 0-17.066667 22.755556-34.133333 62.577778-34.133334 39.822222 0 62.577778 11.377778 62.577778 51.2v62.577778c0 11.377778 5.688889 17.066667 11.377778 17.066667h11.377778l5.688888 11.377778c0 5.688889-11.377778 17.066667-34.133333 17.066666z" fill="#B92B27" p-id="4368"></path><path d="M836.266667 551.822222c0 11.377778 5.688889 22.755556 17.066666 22.755556 17.066667 0 28.444444-17.066667 28.444445-39.822222V512c-11.377778 11.377778-45.511111 17.066667-45.511111 39.822222z" fill="#B92B27" p-id="4369"></path></svg>