<?xml version="1.0" standalone="no"?><!DOCTYPE svg PUBLIC "-//W3C//DTD SVG 1.1//EN" "http://www.w3.org/Graphics/SVG/1.1/DTD/svg11.dtd"><svg t="1749197897180" class="icon" viewBox="0 0 1024 1024" version="1.1" xmlns="http://www.w3.org/2000/svg" p-id="5340" xmlns:xlink="http://www.w3.org/1999/xlink" width="200" height="200"><path d="M625.700571 666.843429c5.156571 5.156571 5.156571 13.129143 0 17.700571-32.585143 32.585143-95.414857 35.437714-113.700571 35.437714s-81.152-2.852571-113.700571-35.437714c-5.156571-4.571429-5.156571-12.580571 0-17.700571a12.434286 12.434286 0 0 1 17.152 0c20.553143 21.138286 65.133714 28.013714 96.585142 28.013714s75.446857-6.838857 96.585143-28.013714a12.434286 12.434286 0 0 1 17.152 0z m-175.396571-103.424c0 28.013714-22.857143 50.870857-50.870857 50.870857a51.090286 51.090286 0 0 1-51.419429-50.870857A51.2 51.2 0 0 1 399.433143 512c28.013714 0 50.870857 22.857143 50.870857 51.419429z m225.682286 0c0 28.013714-22.857143 50.870857-51.419429 50.870857a50.980571 50.980571 0 0 1-50.870857-50.870857c0-28.562286 22.857143-51.419429 50.870857-51.419429a51.2 51.2 0 0 1 51.419429 51.419429z m143.433143-68.571429a68.278857 68.278857 0 0 0-68.571429-67.986286c-19.419429 0-36.571429 8.009143-49.152 20.553143-46.299429-32-108.580571-52.553143-177.700571-54.857143l35.986285-161.718857 114.285715 25.709714c0 28.013714 22.857143 50.870857 50.870857 50.870858 28.562286 0 51.419429-23.442286 51.419428-51.419429s-22.857143-51.419429-51.419428-51.419429a51.931429 51.931429 0 0 0-45.714286 28.562286l-126.281143-28.013714c-6.290286-1.718857-12.580571 2.852571-14.299428 9.142857l-39.424 178.285714c-68.571429 2.852571-130.304 23.442286-176.566858 55.442286a68.644571 68.644571 0 0 0-49.700571-21.138286 68.278857 68.278857 0 0 0-68.571429 67.986286c0 27.428571 16.018286 50.285714 38.838858 61.696a147.163429 147.163429 0 0 0-3.437715 32c0 108.580571 122.294857 196.571429 272.566857 196.571429 150.857143 0 273.152-87.990857 273.152-196.571429 0-10.861714-1.133714-22.272-3.986285-32.585143a68.681143 68.681143 0 0 0 37.705143-61.147428zM1024 512c0 282.843429-229.156571 512-512 512S0 794.843429 0 512 229.156571 0 512 0s512 229.156571 512 512z" fill="" p-id="5341"></path></svg>