<?xml version="1.0" standalone="no"?><!DOCTYPE svg PUBLIC "-//W3C//DTD SVG 1.1//EN" "http://www.w3.org/Graphics/SVG/1.1/DTD/svg11.dtd"><svg t="1749106582702" class="icon" viewBox="0 0 1024 1024" version="1.1" xmlns="http://www.w3.org/2000/svg" p-id="15924" xmlns:xlink="http://www.w3.org/1999/xlink" width="200" height="200"><path d="M513.5 479.9m-237.9 0a237.9 237.9 0 1 0 475.8 0 237.9 237.9 0 1 0-475.8 0Z" fill="#FFFFFF" p-id="15925"></path><path d="M513.5 479.9m-287.4 0a287.4 287.4 0 1 0 574.8 0 287.4 287.4 0 1 0-574.8 0Z" fill="#804F21" p-id="15926"></path><path d="M422.9 348.5c21.6-19 54-25.6 82.5-9.8 10.5 5.7 22.3 8.7 34.1 8.7 10.9 0 21.9-2.5 32.1-7.5 10.8-5.3 21.7-7.7 32.2-7.7 42 0 77.7 37.8 67.6 83.7-1.1 5-1.7 10.2-1.7 15.2 0 17.7 6.8 34.7 19.3 47.5 13.3 13.8 19.4 30.6 19.4 47.3 0 34-24.9 67.2-64.2 72.2-23.2 2.9-44 16.9-55.2 37.5-13.9 25.5-39.3 38.2-64.2 38.2-25.9 0-51.2-13.6-63.3-40.5-4.8-10.4-12-19.4-20.8-26.2-8.9-6.7-19.5-11.4-31-13.3-36.4-5.9-57.8-36.3-57.8-68 0-18.7 7.4-38 23.8-52.8 2-1.8 4-3.7 5.6-5.7" fill="#F2EE74" p-id="15927"></path><path d="M547.4 379.4h43.7v53.9h-43.7z" fill="#20A039" p-id="15928"></path><path d="M422.5 496.8h43.7v53.9h-43.7z" fill="#804F21" p-id="15929"></path><path d="M532.8 479.9h43.7v53.9h-43.7z" fill="#E7434F" p-id="15930"></path><path d="M499.7 575h43.7v53.9h-43.7z" fill="#20A039" p-id="15931"></path><path d="M617.9 474.8h43.7v53.9h-43.7z" fill="#804F21" p-id="15932"></path><path d="M520.2 467.2H334.9c-0.7 0-1.4-0.6-1.4-1.4v-116c0-0.7 0.6-1.4 1.4-1.4h185.3c0.7 0 1.4 0.6 1.4 1.4v116c-0.1 0.8-0.7 1.4-1.4 1.4z" fill="#FFFFFF" p-id="15933"></path></svg>