<?xml version="1.0" standalone="no"?><!DOCTYPE svg PUBLIC "-//W3C//DTD SVG 1.1//EN" "http://www.w3.org/Graphics/SVG/1.1/DTD/svg11.dtd"><svg t="1749357703795" class="icon" viewBox="0 0 1024 1024" version="1.1" xmlns="http://www.w3.org/2000/svg" p-id="3450" xmlns:xlink="http://www.w3.org/1999/xlink" width="200" height="200"><path d="M798.1056 979.2512H184.2176a136.9088 136.9088 0 0 1-133.12-140.288V191.4368a136.9088 136.9088 0 0 1 133.12-140.288h613.888a136.9088 136.9088 0 0 1 133.12 140.288v647.5264a136.96 136.96 0 0 1-133.12 140.288zM184.2176 115.6608a73.728 73.728 0 0 0-71.68 75.52v647.7824a73.728 73.728 0 0 0 71.68 75.52h613.888a73.728 73.728 0 0 0 71.68-75.52V191.4368a73.728 73.728 0 0 0-71.68-75.52z" fill="#FF8000" p-id="3451"></path><path d="M281.6 588.5952a25.6 25.6 0 0 1-9.5232-1.8432 25.6 25.6 0 0 1-14.2848-33.28l143.36-358.4a25.6 25.6 0 0 1 33.28-14.2848 25.6 25.6 0 0 1 14.2848 33.28l-143.36 358.4a25.6 25.6 0 0 1-23.7568 16.128z" fill="#FF8000" p-id="3452"></path><path d="M568.32 588.5952a25.6 25.6 0 0 1-23.7568-16.0768l-143.36-358.4a25.6 25.6 0 0 1 14.2848-33.28 25.6 25.6 0 0 1 33.28 14.2848l143.36 358.4a25.6 25.6 0 0 1-23.808 35.072z" fill="#FF8000" p-id="3453"></path><path d="M675.84 588.5952a25.6 25.6 0 0 1-25.6-25.6v-358.4a25.6 25.6 0 0 1 25.6-25.6 25.6 25.6 0 0 1 25.6 25.6v358.4a25.6 25.6 0 0 1-25.6 25.6z" fill="#FF8000" p-id="3454"></path><path d="M496.64 445.2352H353.28a25.6 25.6 0 0 1-25.6-25.6 25.6 25.6 0 0 1 25.6-25.6h143.36a25.6 25.6 0 0 1 25.6 25.6 25.6 25.6 0 0 1-25.6 25.6z" fill="#FF8000" p-id="3455"></path><path d="M870.4 793.6H102.4v-51.2h768z" fill="#FF8000" p-id="3456"></path></svg>