<?xml version="1.0" standalone="no"?><!DOCTYPE svg PUBLIC "-//W3C//DTD SVG 1.1//EN" "http://www.w3.org/Graphics/SVG/1.1/DTD/svg11.dtd"><svg t="1749357711577" class="icon" viewBox="0 0 1024 1024" version="1.1" xmlns="http://www.w3.org/2000/svg" p-id="3604" xmlns:xlink="http://www.w3.org/1999/xlink" width="200" height="200"><path d="M877.738667 0C958.464 0 1024 65.536 1024 146.261333v731.477334c0 80.725333-65.536 146.261333-146.261333 146.261333H146.261333A146.261333 146.261333 0 0 1 0 877.738667V146.261333C0 65.536 65.536 0 146.261333 0h731.477334z m9.728 224.426667H783.957333v596.48H887.466667V224.426667z m-423.68-0.853334H344.661333L119.466667 819.626667h107.008L280.746667 675.84h251.136l56.064 143.701333h109.568L463.786667 223.573333z m-60.416 125.44l94.037333 238.933334H313.6l89.770667-238.933334z" fill="#C2770E" p-id="3605"></path></svg>