<?xml version="1.0" standalone="no"?><!DOCTYPE svg PUBLIC "-//W3C//DTD SVG 1.1//EN" "http://www.w3.org/Graphics/SVG/1.1/DTD/svg11.dtd"><svg t="1749720112841" class="icon" viewBox="0 0 2158 1024" version="1.1" xmlns="http://www.w3.org/2000/svg" p-id="5257" xmlns:xlink="http://www.w3.org/1999/xlink" width="421.484375" height="200"><path d="M883.763975 5.762006c-87.79338 6.241286-162.177581 80.092954-162.177581 184.224445v495.426044c0 17.925059-13.281371 33.336562-32.676221 33.336562H534.177402c-334.973869 0.394074-305.226579-427.687854-20.05519-428.220387H685.182443V166.075722H507.880926c-113.567975 0-197.782733 42.378971-254.625299 105.601282-56.842566 63.22231-85.396982 148.363677-85.52479 233.228126-0.138459 84.8751 28.011233 169.483933 86.195781 232.706243 58.173898 63.083852 146.105737 105.590631 266.564688 105.590632h291.8174c19.256391 0 35.189777-16.604377 35.189776-35.860769v-604.211872c-0.127808-31.067972 17.403176-55.244967 40.24884-62.285052 22.845663-7.040085 49.674673 1.863865 65.352442 24.571069l0.660341 0.660341C1036.760689 301.818368 1366.292071 830.453166 1366.824604 831.390424c9.031759 12.887297 19.788924 15.145237 27.627809 12.621031 7.838885-2.662665 15.805578-11.16189 15.667119-32.143689V203.140015c-0.127808-31.078622 17.403176-55.255618 40.24884-62.306354 22.845663-7.029435 49.014332 1.874516 64.819909 24.58172v0.660341h1.192874c83.011234 135.742646 412.542617 664.377444 413.07515 665.304051 8.8933 12.748839 19.384199 15.273045 27.627808 12.621031 8.232959-2.662665 16.465918-10.629357 16.338111-31.483347V8.957204h-125.123939v468.991109s-74.639817-127.509687-202.41577-347.062367c-125.251747-215.036801-361.536612-126.050547-361.536612 59.111156v287.951211s-73.319135-127.509687-201.233547-347.062367C1028.399922 36.840629 952.034698 0.841402 883.763975 5.751356z m-353.974644 3.195198c-696.382673 0-689.598204 992.300577 9.436484 992.83311h273.476965c117.551321 0 192.595863-69.602055 192.457404-198.03835v-251.56856s153.539897 253.8265 213.843927 353.314304c102.267626 169.079208 349.586573 135.742646 348.915581-75.449267V552.194055s153.018015 253.815849 213.183586 353.303653c102.267626 169.079208 350.246914 135.742646 349.586573-75.449267V8.818745h-125.123939v803.570904c0.138459 30.812356-16.061193 53.658019-38.384974 60.964371-22.31313 7.306352-47.938615-1.863865-63.477926-23.910729h-0.670992v-1.192874s-329.65919-527.165007-413.735491-664.64371c-0.266266-0.255616-0.404725 0.266266-0.670991 0-0.127808 0 0.138459-0.660341 0-0.660341-8.627034-11.555965-19.788924-14.080171-28.948491-11.289699-9.436484 2.918281-18.329784 11.023432-18.201976 31.483348v608.578642c0.138459 30.684548-15.667119 54.850893-37.713982 62.306354-22.046864 7.43416-47.416733-2.396398-62.828236-24.58172v-0.660341h-0.660341S1010.336404 320.552877 926.52637 183.478899c-8.765492-12.482572-20.05519-15.539311-29.481023-12.621031-9.425833 2.928931-18.329784 11.023432-18.201976 31.483347V807.213429c0 36.648917-30.141364 67.333465-66.673124 67.333464H520.363498c-128.04222 0-225.133625-46.085401-289.282543-115.687455-64.159568-69.602055-95.770724-161.911315-95.642916-254.082116 0.138459-92.053644 31.749614-185.023244 94.311584-254.625299 62.56197-69.591404 156.458177-115.559648 277.865036-115.687456h177.312168V8.680287H529.661523z" fill="#CC0000" p-id="5258"></path></svg>