<?xml version="1.0" standalone="no"?><!DOCTYPE svg PUBLIC "-//W3C//DTD SVG 1.1//EN" "http://www.w3.org/Graphics/SVG/1.1/DTD/svg11.dtd"><svg t="1749357805989" class="icon" viewBox="0 0 1052 1024" version="1.1" xmlns="http://www.w3.org/2000/svg" p-id="5743" xmlns:xlink="http://www.w3.org/1999/xlink" width="205.46875" height="200"><path d="M640.719568 261.286054h-376.38919A70.794378 70.794378 0 0 0 193.72973 331.886703V754.162162a70.794378 70.794378 0 0 0 70.600648 70.600649h376.38919a70.794378 70.794378 0 0 0 70.600648-70.600649V331.886703a70.794378 70.794378 0 0 0-70.600648-70.600649z m-209.643244 186.478703a23.496649 23.496649 0 0 1-23.524324 23.524324H334.875676v47.048649h72.731675a23.524324 23.524324 0 0 1 0 47.048648H334.875676v47.048649h72.731675a23.524324 23.524324 0 1 1 0 47.048649H311.351351a23.275243 23.275243 0 0 1-8.164324-1.466811 23.552 23.552 0 0 1-15.443027-22.140541v-188.056216a23.635027 23.635027 0 0 1 23.607351-23.607351h96.172973a23.607351 23.607351 0 0 1 23.552 23.552z m186.921514 188.194594a23.524324 23.524324 0 0 1-47.048649 0v-70.240865a23.247568 23.247568 0 0 0-46.467459 0v70.21319a23.524324 23.524324 0 1 1-47.048649 0v-117.649298a23.496649 23.496649 0 0 1 40.517189-16.245621 69.465946 69.465946 0 0 1 29.696-6.614487 70.379243 70.379243 0 0 1 70.296216 70.296216v70.21319z" fill="#8E1B11" p-id="5744"></path><path d="M781.588757 753.913081a23.496649 23.496649 0 0 1-23.524325-23.524324V260.151351a47.048649 47.048649 0 0 0-47.048648-47.048648H288.712649a23.524324 23.524324 0 1 1 0-47.048649H710.988108a94.097297 94.097297 0 0 1 94.097297 94.097297v470.20973a23.496649 23.496649 0 0 1-23.496648 23.552z" fill="#8E1B11" p-id="5745"></path></svg>