<?xml version="1.0" standalone="no"?><!DOCTYPE svg PUBLIC "-//W3C//DTD SVG 1.1//EN" "http://www.w3.org/Graphics/SVG/1.1/DTD/svg11.dtd"><svg t="1749719961775" class="icon" viewBox="0 0 1024 1024" version="1.1" xmlns="http://www.w3.org/2000/svg" p-id="4181" xmlns:xlink="http://www.w3.org/1999/xlink" width="200" height="200"><path d="M512 0c282.771242 0 512 229.228758 512 512s-229.228758 512-512 512S0 794.771242 0 512 229.228758 0 512 0z m180.719268 248.798536c-17.769412-15.383425-49.095111-24.753359-87.89668-20.068392l0.0937 0.013385c2.436183 0.334641 51.805699 7.492601 54.6903 34.61187 2.951529 27.801935-37.503163 31.155033-54.780653 26.804706-7.696732-1.940915-35.210876-10.099451-65.338562-19.104628l-3.179085-0.950379a32429.343791 32429.343791 0 0 1-8.004602-2.396026l-4.112732-1.231477c-32.895163-9.848471-65.479111-19.640052-76.200993-22.645124-22.340601-6.261124-68.31017-2.680471-96.724497 19.522928-28.41098 22.200052-42.984575 53.559216-32.677647 102.326379 5.213699 20.881569 20.165438 34.273882 44.858562 40.18698-14.496627-18.231216-16.695216-34.668758-6.585725-49.309281 15.159216-21.962458 46.866405-17.080052 62.564392-13.285229 6.967216 1.686588 37.901386 9.617569 72.546719 18.425308l3.259398 0.826562 4.919216 1.248209 4.949333 1.258248 3.219242 0.816523c0.535425 0.133856 1.07085 0.267712 1.609621 0.408261l3.222588 0.816523 1.609621 0.404915 4.765281 1.204706 1.803713 0.458458 3.594039 0.906876c5.980026 1.509229 11.879739 2.995033 17.608784 4.43064l3.413334 0.85668c24.294902 6.083765 44.938876 11.143529 53.903895 13.05098 4.628078 0.983843 10.015791 1.649778 15.888732 1.877334v96.399895l-44.942222 36.26834a3.346405 3.346405 0 0 0 0.050196 5.247163L615.738562 563.005908l0.003346 139.521674c-13.318693 7.442405-27.985987 12.816732-43.914875 14.781072-76.364967 9.403399-124.28549-18.652863-147.921151-49.158693L548.810458 612.392157v-217.51634l-152.616157 68.13281c16.705255-39.099399 42.332026-69.022954 76.873621-89.774013-84.630588 20.858144-140.281307 70.78651-166.952157 149.785098-40.002928 118.502902 38.410039 199.997908 50.333281 215.060079 11.923242 15.058824 89.492915 89.091346 215.37464 54.512941 125.885072-34.571712 137.594144-168.113359 133.886327-193.104314 0 0-0.501961 1.104314-1.499189 3.098772l-0.495268 0.983843c-7.489255 14.814536-35.863425 66.342484-81.284183 94.981019v-134.789856l45.859137-35.582327a3.346405 3.346405 0 0 0 0.053542-5.247163L622.431373 485.874614v-95.539869c28.293856-0.515346 64.535425-11.093333 82.177673-43.125124 22.929569-41.629281 5.876288-83.024314-11.889778-98.411085z m-144.367268 152.970876L451.764706 445.071895v203.946667l-31.539869 14.081673a99.850039 99.850039 0 0 1-3.312942-5.180235c-20.316026-34.022902-53.639529-95.134954-26.821437-179.089569 0.896837-2.586771 1.827137-5.140078 2.794248-7.656575l155.467294-69.404444z" p-id="4182"></path></svg>