<svg width="136" height="55" viewBox="0 0 136 55" fill="none" xmlns="http://www.w3.org/2000/svg">
<g clip-path="url(#clip0_86_15851)">
<path d="M120.68 24.3658L117.747 35.4L116.623 39.6035L110.354 16.0566V16.0443L111.674 11.1077L114.411 0.831055L120.68 24.3658Z" fill="#20DCFF"/>
<path d="M100.041 24.378L97.1084 35.4L95.9842 39.6035L85.6709 0.831055C90.4487 0.831055 94.6278 4.04479 95.862 8.66376L100.041 24.378Z" fill="#20DCFF"/>
<path d="M135.05 0.831055L126.448 33.1516C125.433 36.9641 121.987 39.6035 118.053 39.6035H116.623L117.747 35.4L120.68 24.378L124.859 8.66376C126.093 4.04479 130.272 0.831055 135.05 0.831055Z" fill="#11C6FF"/>
<path d="M114.411 0.831055L111.674 11.1077L110.355 16.0566L106.175 31.7708C104.941 36.3898 100.762 39.6035 95.9844 39.6035L97.1086 35.4L100.041 24.378L104.22 8.66376C105.442 4.04479 109.621 0.831055 114.411 0.831055Z" fill="#11C6FF"/>
<path d="M71.0687 30.2066C70.0911 30.952 69.0158 31.5263 67.855 31.9174C61.6352 34.0313 54.7556 30.3899 52.5195 23.8403C52.1773 22.6427 52.0063 21.4086 52.0063 20.1377C52.0063 18.8791 52.1896 17.645 52.5317 16.4719C54.7679 9.8978 61.6475 6.26861 67.8672 8.37036C69.028 8.76139 70.1156 9.3357 71.0809 10.0811C73.757 12.1218 77.5695 12.024 80.1233 9.8367L80.5021 9.519L80.2333 9.10353C79.0358 7.20951 77.5572 5.5721 75.8221 4.22795L75.37 3.87358C72.0218 1.33193 68.0627 0 63.9081 0C53.1793 0 44.4424 9.03022 44.4424 20.1622C44.4424 31.2819 53.1793 40.3244 63.9081 40.3244C68.2826 40.3244 72.4128 38.8458 75.8587 36.0598L76.2253 35.7298C77.7772 34.4468 79.1213 32.9194 80.2089 31.1964L80.4777 30.7809L80.0989 30.4632C77.5328 28.2882 73.7325 28.1782 71.0565 30.2188L71.0687 30.2066Z" fill="#11C6FF"/>
<path d="M36.0475 9.53122L35.7787 9.10353C35.2411 8.26039 34.6179 7.42946 33.9336 6.65963L33.848 6.56188C33.7014 6.40302 33.5548 6.24417 33.4081 6.08531C33.2859 5.9509 33.1515 5.81649 33.0049 5.66985L32.9316 5.59653C29.9134 2.60276 26.1497 0.73317 22.0318 0.171073C21.934 0.158854 21.8363 0.146634 21.7385 0.134415C21.5674 0.109976 21.3964 0.0977561 21.2253 0.0855366C21.0786 0.073317 20.932 0.0610975 20.7854 0.048878H20.7121C20.5899 0.0366585 20.4799 0.024439 20.3577 0.024439C20.1011 0.0122195 19.8445 0 19.5634 0H19.3313C19.0746 0 18.8303 0 18.5737 0.024439C18.4515 0.024439 18.317 0.0366585 18.1948 0.048878H18.0727C17.9505 0.0610975 17.8283 0.073317 17.7061 0.0855366C17.5228 0.0977561 17.3395 0.122195 17.1562 0.146634L16.8751 0.183293C16.6674 0.207732 16.4597 0.24439 16.2519 0.281049L16.1175 0.305488C6.78183 2.004 0 10.3377 0 20.1622C0 23.9258 1.01422 27.5917 2.93268 30.7809L3.20151 31.2086C3.73917 32.0518 4.36236 32.8827 5.04666 33.6525L5.13219 33.7503C5.27883 33.9091 5.42546 34.068 5.57209 34.2268C5.69429 34.3613 5.8287 34.4957 5.9509 34.6179L6.04866 34.7156C9.06687 37.6972 12.8427 39.579 16.9485 40.1289H16.9851C17.0707 40.1411 17.1562 40.1533 17.2417 40.1655C17.4128 40.19 17.5839 40.2022 17.7427 40.2144C17.8894 40.2266 18.036 40.2388 18.1826 40.2511H18.2682C18.3781 40.2633 18.5003 40.2755 18.6103 40.2755C18.8669 40.2877 19.1235 40.2999 19.4168 40.2999H19.6367C19.8934 40.2999 20.1377 40.2999 20.3944 40.2755C20.5166 40.2755 20.6387 40.2633 20.7609 40.2511H20.9076C21.0298 40.2266 21.152 40.2266 21.2742 40.2144C21.4575 40.2022 21.6407 40.1777 21.824 40.1533C21.9218 40.1533 22.0196 40.1289 22.1173 40.1166C22.325 40.0922 22.5328 40.0555 22.7527 40.0189L22.8871 39.9944C32.2106 38.3082 38.9802 29.9622 38.9924 20.1377C38.9924 16.3741 37.9782 12.7083 36.0598 9.519L36.0475 9.53122ZM31.4163 20.1377V20.1744C31.4163 21.433 31.2331 22.6672 30.8909 23.8403C29.2168 28.7403 24.7812 32.2351 19.8689 32.5161H19.7589C14.529 32.5161 9.8367 29.0336 8.06487 23.8403C7.72273 22.6427 7.55165 21.4086 7.55165 20.1377C7.55165 18.8791 7.73495 17.645 8.07709 16.4719C9.75117 11.5719 14.1868 8.0771 19.0991 7.79605H19.2091C24.439 7.79605 29.1313 11.2786 30.9031 16.4719C31.2453 17.6694 31.4163 18.9036 31.4163 20.1377Z" fill="#11C6FF"/>
<path d="M2.02891 48.3406L1.52791 47.6074V51.9942C1.52791 52.0675 1.55235 52.1164 1.58901 52.1653C1.62567 52.2141 1.68677 52.2508 1.76008 52.2752L2.35884 52.483V52.7762H0.0615733V52.483L0.660329 52.2752C0.721427 52.2508 0.782524 52.2141 0.819183 52.1653C0.855841 52.1164 0.88028 52.0553 0.88028 51.9942V46.9842C0.88028 46.9109 0.855841 46.8498 0.819183 46.8009C0.770305 46.752 0.721427 46.7154 0.660329 46.7031L0.0126953 46.5076V46.2144H2.09001L4.94938 50.3201L5.4015 50.9678V46.9842C5.4015 46.9109 5.37706 46.8498 5.3404 46.8131C5.30374 46.7642 5.24264 46.7398 5.16933 46.7031L4.57057 46.4954V46.2021H6.88006V46.4954L6.2813 46.7031C6.2202 46.7276 6.15911 46.7642 6.12245 46.8131C6.08579 46.862 6.06135 46.9109 6.06135 46.9842V51.6643L5.91472 52.8007H5.16933L2.05335 48.3283L2.02891 48.3406Z" fill="#00719E"/>
<path d="M8.81084 52.8619C8.62755 52.8619 8.45648 52.8253 8.29762 52.752C8.15099 52.6786 8.01657 52.5931 7.9066 52.4709C7.79662 52.3609 7.71109 52.2265 7.64999 52.0677C7.58889 51.921 7.56445 51.7622 7.56445 51.5911C7.56445 51.3956 7.60111 51.2245 7.66221 51.0657C7.72331 50.9068 7.82106 50.7724 7.93104 50.6624C8.04101 50.5402 8.17543 50.4425 8.32206 50.3569C8.4687 50.2714 8.62755 50.2103 8.7864 50.1492C8.94526 50.1003 9.10411 50.0637 9.26296 50.027C9.42182 50.0026 9.56845 49.9904 9.71509 49.9904C9.73953 49.9904 9.7884 49.9904 9.83728 49.9904C9.88616 49.9904 9.94726 49.9904 9.99614 49.9904C10.0572 49.9904 10.1061 49.9904 10.155 49.9904C10.2039 49.9904 10.2527 49.9904 10.2772 49.9904V49.3061C10.2772 49.1594 10.2772 49.025 10.2527 48.9273C10.2405 48.8295 10.2039 48.7562 10.155 48.6951C10.1061 48.634 10.0572 48.6095 9.98392 48.5851C9.9106 48.5607 9.82506 48.5484 9.70287 48.5484C9.58067 48.5484 9.44626 48.5729 9.29962 48.634C9.16521 48.6951 9.01857 48.7562 8.88416 48.8417C8.74975 48.9273 8.61533 49.0006 8.49314 49.0861C8.37094 49.1716 8.26097 49.245 8.17543 49.3061H8.02879L7.83328 48.3774C7.94326 48.3285 8.06545 48.2796 8.18765 48.2307C8.32206 48.1819 8.45648 48.133 8.61533 48.0963C8.76197 48.0597 8.93304 48.023 9.10411 47.9986C9.27518 47.9741 9.45848 47.9619 9.64177 47.9619C9.86172 47.9619 10.0939 47.9864 10.3138 48.0352C10.546 48.0841 10.7415 48.1696 10.9248 48.2796C11.1081 48.3896 11.2547 48.5484 11.3647 48.744C11.4747 48.9395 11.5358 49.1716 11.5358 49.4649L11.5114 51.8233C11.5114 51.8233 11.5114 51.9088 11.5358 51.9455C11.548 51.9821 11.5725 52.0188 11.6091 52.0432C11.6458 52.0677 11.6824 52.0921 11.7313 52.1043C11.7802 52.1165 11.8413 52.1288 11.9024 52.1288C11.939 52.1288 11.9879 52.1288 12.0612 52.1043C12.1345 52.0921 12.2079 52.0799 12.2812 52.0677H12.3789V52.3976C12.3789 52.3976 12.269 52.4709 12.1834 52.5198C12.0979 52.5687 12.0001 52.6053 11.8902 52.6542C11.7802 52.6909 11.6702 52.7275 11.548 52.7642C11.4258 52.7886 11.3158 52.8131 11.2059 52.8131C11.0715 52.8131 10.937 52.8008 10.8148 52.7764C10.6926 52.752 10.5949 52.7031 10.5094 52.6542C10.4238 52.5931 10.3505 52.5198 10.3016 52.422C10.2527 52.3243 10.2283 52.2021 10.2283 52.0432C10.1061 52.2265 9.98392 52.3609 9.86172 52.4587C9.72731 52.5564 9.60511 52.642 9.4707 52.6909C9.33628 52.7397 9.21409 52.7764 9.09189 52.7886C8.9697 52.8008 8.85972 52.8131 8.76196 52.8131L8.81084 52.8619ZM9.54401 52.141C9.60511 52.141 9.67843 52.141 9.75174 52.1288C9.82506 52.1288 9.88616 52.0921 9.95948 52.0677C10.0206 52.0432 10.0939 51.9943 10.1428 51.9455C10.2039 51.8966 10.2527 51.8355 10.3016 51.7622V50.4058C10.0939 50.4058 9.89838 50.418 9.72731 50.4547C9.55623 50.4914 9.4096 50.5524 9.2874 50.6258C9.16521 50.6991 9.06745 50.8091 9.00635 50.9313C8.94526 51.0534 8.9086 51.2001 8.9086 51.3712C8.9086 51.5178 8.93304 51.64 8.9697 51.7377C9.00636 51.8355 9.05523 51.921 9.11633 51.9699C9.17743 52.031 9.25075 52.0677 9.32406 52.0921C9.39738 52.1165 9.48292 52.1288 9.55623 52.1288L9.54401 52.141Z" fill="#00719E"/>
<path d="M15.0549 52.8494C14.8594 52.8494 14.6639 52.8249 14.4928 52.7883C14.3218 52.7516 14.1751 52.6783 14.0529 52.5928C13.9307 52.5072 13.833 52.4095 13.7597 52.2873C13.6863 52.1651 13.6497 52.0307 13.6497 51.884V48.6948H12.9043V48.4015C13.0265 48.377 13.1365 48.3404 13.2342 48.3037C13.332 48.2671 13.4175 48.2182 13.4908 48.1693C13.5641 48.1204 13.6252 48.0349 13.6619 47.9494C13.7108 47.8638 13.7352 47.7416 13.7352 47.6072L13.7719 47.0207L14.9083 46.8496V48.1938H16.5213L16.3746 48.707H14.9083V51.6519C14.9083 51.7496 14.945 51.8352 15.0061 51.8963C15.0671 51.9696 15.1405 52.0307 15.2382 52.0796C15.336 52.1284 15.4215 52.1651 15.5193 52.1895C15.617 52.214 15.7026 52.2262 15.7881 52.2262C15.837 52.2262 15.8859 52.2262 15.947 52.2262C15.9958 52.2262 16.0447 52.214 16.0936 52.2018C16.1425 52.2018 16.1913 52.1895 16.228 52.1773L16.3502 52.1407H16.4602V52.4584C16.4602 52.4584 16.338 52.5195 16.2402 52.5683C16.1425 52.6172 16.0325 52.6539 15.9103 52.7028C15.7881 52.7516 15.6537 52.7883 15.5071 52.8127C15.3604 52.8494 15.2016 52.8616 15.0305 52.8616L15.0549 52.8494Z" fill="#00719E"/>
<path d="M17.2549 52.4831L17.7437 52.3365C17.8048 52.312 17.8536 52.2876 17.9025 52.2387C17.9392 52.1898 17.9636 52.141 17.9636 52.0676V49.1716C17.9636 49.0861 17.9392 49.025 17.9025 48.9639C17.8536 48.9028 17.7803 48.8661 17.6703 48.8172L17.2793 48.6706V48.4384L19.2344 48.0596V52.0554C19.2344 52.1287 19.2589 52.1898 19.2955 52.2265C19.3322 52.2631 19.3811 52.2998 19.4544 52.3242L19.9065 52.4709V52.7519H17.2671V52.4709L17.2549 52.4831ZM18.5379 47.131C18.428 47.131 18.3302 47.1065 18.2324 47.0699C18.1347 47.0332 18.0492 46.9721 17.9881 46.911C17.927 46.8499 17.8659 46.7644 17.817 46.6666C17.7803 46.5689 17.7559 46.4711 17.7559 46.3611C17.7559 46.2511 17.7803 46.1534 17.817 46.0679C17.8536 45.9701 17.9147 45.8968 17.9881 45.8235C18.0614 45.7502 18.1347 45.7013 18.2324 45.6646C18.3302 45.628 18.428 45.6035 18.5379 45.6035C18.6479 45.6035 18.7579 45.628 18.8434 45.6646C18.9412 45.7013 19.0267 45.7624 19.1 45.8235C19.1733 45.8846 19.2344 45.9701 19.2711 46.0679C19.3078 46.1656 19.3322 46.2634 19.3322 46.3611C19.3322 46.4589 19.3078 46.5689 19.2711 46.6666C19.2344 46.7644 19.1733 46.8377 19.1 46.911C19.0267 46.9843 18.9412 47.0332 18.8434 47.0699C18.7457 47.1065 18.6479 47.131 18.5379 47.131Z" fill="#00719E"/>
<path d="M23.205 52.8868C22.8384 52.8868 22.5085 52.8257 22.2275 52.7158C21.9464 52.6058 21.6898 52.4347 21.4943 52.227C21.2988 52.0192 21.1399 51.7626 21.0299 51.4571C20.92 51.1639 20.8711 50.8217 20.8711 50.4551C20.8711 50.113 20.92 49.7953 21.0299 49.502C21.1399 49.2088 21.2866 48.9521 21.4943 48.72C21.702 48.4878 21.9464 48.3289 22.2397 48.1945C22.5329 48.0723 22.8751 47.999 23.2539 47.999C23.6571 47.999 24.0115 48.0723 24.3048 48.2068C24.598 48.3412 24.8424 48.5245 25.0379 48.7444C25.2335 48.9644 25.3679 49.221 25.4534 49.5142C25.5389 49.8075 25.5878 50.113 25.5878 50.4185C25.5878 50.7484 25.5389 51.0661 25.429 51.3716C25.319 51.6649 25.1724 51.9215 24.9646 52.1537C24.7569 52.3858 24.5125 52.5447 24.207 52.6791C23.9015 52.8135 23.5716 52.8746 23.1806 52.8746L23.205 52.8868ZM23.2661 52.4103C23.4739 52.4103 23.6327 52.3492 23.7549 52.227C23.8771 52.1048 23.9748 51.9581 24.0482 51.7749C24.1215 51.5916 24.1704 51.3838 24.1826 51.1639C24.207 50.9439 24.2192 50.7362 24.2192 50.5285C24.2192 50.2841 24.207 50.0397 24.1704 49.7953C24.1337 49.5509 24.0848 49.331 23.9993 49.1477C23.926 48.9521 23.816 48.7933 23.6816 48.6833C23.5472 48.5733 23.3883 48.5 23.1806 48.5C22.9728 48.5 22.814 48.5611 22.6918 48.6833C22.5696 48.8055 22.4718 48.9521 22.3985 49.1354C22.3252 49.3187 22.2763 49.5265 22.2519 49.7342C22.2275 49.9541 22.2152 50.1619 22.2152 50.3574C22.2152 50.5773 22.2275 50.8095 22.2519 51.0539C22.2763 51.2983 22.3252 51.5182 22.4108 51.7138C22.4841 51.9093 22.594 52.0803 22.7285 52.2148C22.8629 52.3492 23.0339 52.4103 23.2417 52.4103H23.2661Z" fill="#00719E"/>
<path d="M26.6753 52.4831L27.1519 52.3364C27.1519 52.3364 27.2618 52.2875 27.2985 52.2387C27.3352 52.1898 27.3596 52.1409 27.3596 52.0676V49.1716C27.3596 49.086 27.3352 49.0249 27.2863 48.9638C27.2374 48.9027 27.1641 48.8539 27.0663 48.8172L26.6753 48.6706V48.4384L28.606 48.0596V48.8294C28.7282 48.6583 28.8504 48.5117 28.9848 48.414C29.107 48.304 29.2292 48.2307 29.3636 48.1696C29.498 48.1085 29.608 48.0718 29.7302 48.0596C29.8524 48.0352 29.9746 48.0352 30.0968 48.0352C30.3045 48.0352 30.5 48.0718 30.6711 48.1329C30.8544 48.194 31.001 48.2918 31.1354 48.4262C31.2698 48.5606 31.3676 48.7317 31.4409 48.9394C31.5142 49.1471 31.5509 49.3915 31.5509 49.6848V52.0676C31.5509 52.1409 31.5753 52.2142 31.612 52.2509C31.6609 52.2998 31.7097 52.3364 31.7586 52.3486L32.1619 52.4953V52.7763H29.6324V52.4953L30.0601 52.3486C30.0601 52.3486 30.1579 52.2998 30.2067 52.2509C30.2556 52.202 30.2678 52.1409 30.2678 52.0554V50.1125C30.2678 49.9047 30.2678 49.7092 30.2434 49.5504C30.2312 49.3915 30.1945 49.2571 30.1334 49.1471C30.0723 49.0372 29.999 48.9638 29.9013 48.9027C29.8035 48.8416 29.6569 48.8172 29.4858 48.8172C29.4125 48.8172 29.3392 48.8172 29.2536 48.8172C29.1803 48.8172 29.0948 48.8416 29.0215 48.8661C28.9481 48.8905 28.8748 48.9272 28.8015 48.9883C28.7282 49.0372 28.6671 49.1105 28.6182 49.196V52.0676C28.6182 52.1409 28.6426 52.202 28.6793 52.2387C28.716 52.2753 28.7771 52.312 28.8259 52.3364L29.1925 52.4831V52.7641H26.6631V52.4831H26.6753Z" fill="#00719E"/>
<path d="M34.386 52.8619C34.2027 52.8619 34.0317 52.8253 33.8728 52.752C33.7262 52.6786 33.5918 52.5931 33.4818 52.4709C33.3718 52.3609 33.2863 52.2265 33.2252 52.0677C33.1641 51.921 33.1396 51.7622 33.1396 51.5911C33.1396 51.3956 33.1763 51.2245 33.2374 51.0657C33.2985 50.9068 33.3963 50.7724 33.5062 50.6624C33.6162 50.5402 33.7506 50.4425 33.8973 50.3569C34.0439 50.2714 34.2027 50.2103 34.3616 50.1492C34.5205 50.1003 34.6793 50.0637 34.8382 50.027C34.997 50.0026 35.1436 49.9904 35.2903 49.9904C35.3147 49.9904 35.3636 49.9904 35.4125 49.9904C35.4614 49.9904 35.5225 49.9904 35.5713 49.9904C35.6324 49.9904 35.6813 49.9904 35.7302 49.9904C35.7791 49.9904 35.8279 49.9904 35.8524 49.9904V49.3061C35.8524 49.1594 35.8524 49.025 35.8279 48.9273C35.8157 48.8295 35.7791 48.7562 35.7302 48.6951C35.6813 48.6462 35.6324 48.6095 35.5591 48.5851C35.4858 48.5607 35.4003 48.5484 35.2781 48.5484C35.1559 48.5484 35.0215 48.5729 34.8748 48.634C34.7404 48.6951 34.5938 48.7562 34.4594 48.8417C34.3249 48.915 34.1905 49.0006 34.0683 49.0861C33.9461 49.1716 33.8362 49.245 33.7506 49.3061H33.604L33.4085 48.3774C33.5185 48.3285 33.6406 48.2796 33.7628 48.2307C33.885 48.1819 34.0317 48.133 34.1905 48.0963C34.3372 48.0597 34.5082 48.023 34.6793 47.9986C34.8504 47.9741 35.0337 47.9619 35.217 47.9619C35.4369 47.9619 35.6691 47.9864 35.889 48.0352C36.1212 48.0841 36.3167 48.1696 36.5 48.2796C36.6833 48.4018 36.8299 48.5484 36.9399 48.744C37.0499 48.9395 37.111 49.1716 37.111 49.4649L37.0865 51.8233C37.0865 51.8233 37.0865 51.9088 37.111 51.9455C37.1232 51.9821 37.1476 52.0188 37.1843 52.0432C37.221 52.0677 37.2576 52.0921 37.3065 52.1043C37.3554 52.1165 37.4165 52.1288 37.4776 52.1288C37.5142 52.1288 37.5631 52.1288 37.6364 52.1043C37.7097 52.0799 37.7831 52.0799 37.8564 52.0677H37.9541V52.3976C37.9541 52.3976 37.8442 52.4709 37.7586 52.5198C37.6731 52.5687 37.5753 52.6053 37.4654 52.6542C37.3554 52.6909 37.2454 52.7275 37.1232 52.7642C37.001 52.7886 36.891 52.8131 36.7811 52.8131C36.6466 52.8131 36.5122 52.8008 36.39 52.7764C36.2678 52.752 36.1701 52.7031 36.0845 52.6542C35.999 52.5931 35.9257 52.5198 35.8768 52.422C35.8279 52.3243 35.8035 52.2021 35.8035 52.0432C35.6813 52.2265 35.5591 52.3609 35.4369 52.4587C35.3025 52.5564 35.1803 52.642 35.0459 52.6909C34.9115 52.7397 34.7893 52.7764 34.6671 52.7886C34.5449 52.8008 34.4349 52.8131 34.3372 52.8131L34.386 52.8619ZM35.107 52.141C35.1681 52.141 35.2414 52.141 35.3147 52.1288C35.388 52.1165 35.4491 52.0921 35.5225 52.0677C35.5835 52.0432 35.6569 51.9943 35.7057 51.9455C35.7668 51.8966 35.8157 51.8355 35.8646 51.7622V50.4058C35.6569 50.4058 35.4614 50.418 35.2903 50.4547C35.1192 50.4914 34.9726 50.5524 34.8504 50.6258C34.7282 50.6991 34.6304 50.8091 34.5693 50.9313C34.5082 51.0534 34.4716 51.2001 34.4716 51.3712C34.4716 51.5178 34.496 51.64 34.5327 51.7377C34.5693 51.8355 34.6182 51.921 34.6793 51.9699C34.7404 52.031 34.8137 52.0677 34.887 52.0921C34.9604 52.1165 35.0459 52.1288 35.1192 52.1288L35.107 52.141Z" fill="#00719E"/>
<path d="M38.6265 52.4831L39.0909 52.3365C39.1642 52.3121 39.2131 52.2754 39.2497 52.2265C39.2864 52.1776 39.2986 52.1288 39.2986 52.0554V46.7155C39.2986 46.63 39.2742 46.5567 39.2375 46.5078C39.2008 46.4467 39.1153 46.3978 39.0053 46.3734L38.5654 46.2267V45.9946L40.5694 45.5791V52.0554C40.5694 52.1288 40.5939 52.1899 40.6305 52.2265C40.6672 52.2632 40.7161 52.2998 40.7894 52.3243L41.1926 52.4709V52.752H38.6143V52.4709L38.6265 52.4831Z" fill="#00719E"/>
<path d="M46.5693 52.4834L47.2658 52.3124C47.3391 52.3001 47.388 52.2635 47.4246 52.2146C47.4613 52.1657 47.4857 52.1046 47.4857 52.0313V46.7525H46.0927C46.0316 46.7525 45.9827 46.7647 45.9583 46.8014C45.9339 46.838 45.9094 46.8747 45.8972 46.9236L45.5062 47.9744H45.1885V46.2393H51.1638V47.9744H50.8461L50.4551 46.9236C50.4551 46.9236 50.4184 46.838 50.394 46.8014C50.3695 46.7647 50.3207 46.7525 50.2596 46.7525H48.8421V52.0313C48.8421 52.1046 48.8665 52.1657 48.9154 52.2146C48.9643 52.2635 49.0132 52.3001 49.0743 52.3124L49.7708 52.4834V52.7645H46.5693V52.4834Z" fill="#00719E"/>
<path d="M52.764 52.8619C52.5807 52.8619 52.4096 52.8253 52.2507 52.752C52.1041 52.6786 51.9697 52.5931 51.8597 52.4709C51.7497 52.3609 51.6642 52.2265 51.6031 52.0677C51.542 51.921 51.5176 51.7622 51.5176 51.5911C51.5176 51.3956 51.5542 51.2245 51.6153 51.0657C51.6764 50.9068 51.7742 50.7724 51.8842 50.6624C51.9941 50.5402 52.1286 50.4425 52.2752 50.3569C52.4218 50.2714 52.5807 50.2103 52.7395 50.1492C52.8984 50.1003 53.0572 50.0637 53.2161 50.027C53.3749 50.0026 53.5216 49.9904 53.6682 49.9904C53.6926 49.9904 53.7415 49.9904 53.7904 49.9904C53.8393 49.9904 53.9004 49.9904 53.9493 49.9904C54.0104 49.9904 54.0592 49.9904 54.1081 49.9904C54.157 49.9904 54.2059 49.9904 54.2303 49.9904V49.3061C54.2303 49.1594 54.2303 49.025 54.2059 48.9273C54.1937 48.8295 54.157 48.7562 54.1081 48.6951C54.0592 48.6462 54.0104 48.6095 53.937 48.5851C53.8637 48.5607 53.7782 48.5484 53.656 48.5484C53.5338 48.5484 53.3994 48.5729 53.2528 48.634C53.1183 48.6951 52.9717 48.7562 52.8373 48.8417C52.7029 48.915 52.5685 49.0006 52.4463 49.0861C52.3241 49.1716 52.2141 49.245 52.1286 49.3061H51.9819L51.7864 48.3774C51.8964 48.3285 52.0186 48.2796 52.1408 48.2307C52.263 48.1819 52.4096 48.133 52.5685 48.0963C52.7151 48.0597 52.8862 48.023 53.0572 47.9986C53.2283 47.9741 53.4116 47.9619 53.5949 47.9619C53.8148 47.9619 54.047 47.9864 54.267 48.0352C54.4991 48.0841 54.6947 48.1696 54.8779 48.2796C55.0612 48.4018 55.2079 48.5484 55.3178 48.744C55.4278 48.9395 55.4889 49.1716 55.4889 49.4649L55.4645 51.8233C55.4645 51.8233 55.4645 51.9088 55.4889 51.9455C55.5011 51.9821 55.5256 52.0188 55.5622 52.0432C55.5989 52.0677 55.6356 52.0921 55.6844 52.1043C55.7333 52.1165 55.7944 52.1288 55.8555 52.1288C55.8922 52.1288 55.941 52.1288 56.0144 52.1043C56.0877 52.0799 56.161 52.0799 56.2343 52.0677H56.3321V52.3976C56.3321 52.3976 56.2221 52.4709 56.1366 52.5198C56.051 52.5687 55.9533 52.6053 55.8433 52.6542C55.7333 52.6909 55.6233 52.7275 55.5011 52.7642C55.3789 52.7886 55.269 52.8131 55.159 52.8131C55.0246 52.8131 54.8902 52.8008 54.768 52.7764C54.6458 52.752 54.548 52.7031 54.4625 52.6542C54.3769 52.5931 54.3036 52.5198 54.2548 52.422C54.2059 52.3243 54.1814 52.2021 54.1814 52.0432C54.0592 52.2265 53.937 52.3609 53.8148 52.4587C53.6804 52.5564 53.5582 52.642 53.4238 52.6909C53.2894 52.7397 53.1672 52.7764 53.045 52.7886C52.9228 52.8008 52.8128 52.8131 52.7151 52.8131L52.764 52.8619ZM53.4849 52.141C53.546 52.141 53.6193 52.141 53.6926 52.1288C53.766 52.1165 53.8271 52.0921 53.9004 52.0677C53.9615 52.0432 54.0348 51.9943 54.0837 51.9455C54.1448 51.8966 54.1936 51.8355 54.2425 51.7622V50.4058C54.0348 50.4058 53.8393 50.418 53.6682 50.4547C53.4971 50.4914 53.3505 50.5524 53.2283 50.6258C53.1061 50.6991 53.0084 50.8091 52.9473 50.9313C52.8862 51.0534 52.8495 51.2001 52.8495 51.3712C52.8495 51.5178 52.8739 51.64 52.9106 51.7377C52.9473 51.8355 52.9961 51.921 53.0572 51.9699C53.1183 52.031 53.1917 52.0677 53.265 52.0921C53.3383 52.1165 53.4238 52.1288 53.4971 52.1288L53.4849 52.141Z" fill="#00719E"/>
<path d="M57.0654 52.4831L57.5542 52.3365C57.6153 52.312 57.6642 52.2876 57.7131 52.2387C57.7497 52.1898 57.7742 52.141 57.7742 52.0676V49.1716C57.7742 49.0861 57.7497 49.025 57.7131 48.9639C57.6642 48.9028 57.5909 48.8661 57.4809 48.8172L57.0899 48.6706V48.4384L59.045 48.0596V52.0554C59.045 52.1287 59.0694 52.1898 59.1061 52.2265C59.1427 52.2631 59.1916 52.2998 59.2649 52.3242L59.7171 52.4709V52.7519H57.0776V52.4709L57.0654 52.4831ZM58.3485 47.131C58.2385 47.131 58.1407 47.1065 58.043 47.0699C57.9452 47.0332 57.8597 46.9721 57.7986 46.911C57.7375 46.8499 57.6764 46.7644 57.6275 46.6666C57.5909 46.5689 57.5664 46.4711 57.5664 46.3611C57.5664 46.2511 57.5909 46.1534 57.6275 46.0679C57.6642 45.9701 57.7253 45.8968 57.7986 45.8235C57.8719 45.7502 57.9452 45.7013 58.043 45.6646C58.1407 45.628 58.2385 45.6035 58.3485 45.6035C58.4585 45.6035 58.5684 45.628 58.654 45.6646C58.7517 45.7013 58.8373 45.7624 58.9106 45.8235C58.9839 45.8846 59.045 45.9701 59.0816 46.0679C59.1183 46.1656 59.1427 46.2634 59.1427 46.3611C59.1427 46.4589 59.1183 46.5689 59.0816 46.6666C59.045 46.7644 58.9839 46.8377 58.9106 46.911C58.8373 46.9843 58.7517 47.0332 58.654 47.0699C58.5562 47.1065 58.4585 47.131 58.3485 47.131Z" fill="#00719E"/>
<path d="M61.0246 48.866C61.0002 48.7926 60.9513 48.7315 60.8902 48.6949C60.8291 48.646 60.7558 48.6093 60.6702 48.5727L60.3525 48.4383V48.1572H62.9431V48.4383L62.2588 48.6216L62.992 50.8211L63.1875 51.4443L63.9329 49.2692L64.3972 48.1694H65.0082L65.9246 50.8333L66.1201 51.4565L67.0611 48.6704L66.389 48.4627V48.1817H68.2341V48.4627L67.9164 48.6216C67.8309 48.6704 67.7576 48.7071 67.6965 48.756C67.6354 48.7926 67.5865 48.8537 67.5621 48.9393L66.4867 51.8231L65.998 52.8251H65.3748L64.5194 50.3079L64.3239 49.5747L63.5663 51.8231L63.0653 52.8251H62.4421L61.0368 48.8904L61.0246 48.866Z" fill="#00719E"/>
<path d="M70.1653 52.8619C69.982 52.8619 69.811 52.8253 69.6521 52.752C69.5055 52.6786 69.3711 52.5931 69.2611 52.4709C69.1511 52.3609 69.0656 52.2265 69.0045 52.0677C68.9434 51.921 68.9189 51.7622 68.9189 51.5911C68.9189 51.3956 68.9556 51.2245 69.0167 51.0657C69.0778 50.9068 69.1756 50.7724 69.2855 50.6624C69.3955 50.5402 69.5299 50.4425 69.6766 50.3569C69.8232 50.2714 69.982 50.2103 70.1409 50.1492C70.2997 50.1003 70.4586 50.0637 70.6175 50.027C70.7763 50.0026 70.9229 49.9904 71.0696 49.9904C71.094 49.9904 71.1429 49.9904 71.1918 49.9904C71.2406 49.9904 71.3017 49.9904 71.3506 49.9904C71.4117 49.9904 71.4606 49.9904 71.5095 49.9904C71.5584 49.9904 71.6072 49.9904 71.6317 49.9904V49.3061C71.6317 49.1594 71.6317 49.025 71.6072 48.9273C71.595 48.8295 71.5584 48.7562 71.5095 48.6951C71.4606 48.634 71.4117 48.6095 71.3384 48.5851C71.2651 48.5607 71.1796 48.5484 71.0574 48.5484C70.9352 48.5484 70.8007 48.5729 70.6541 48.634C70.5197 48.6951 70.3731 48.7562 70.2386 48.8417C70.1042 48.9273 69.9698 49.0006 69.8476 49.0861C69.7254 49.1716 69.6155 49.245 69.5299 49.3061H69.3833L69.1878 48.3774C69.2977 48.3285 69.4199 48.2796 69.5421 48.2307C69.6766 48.1819 69.811 48.133 69.9698 48.0963C70.1165 48.0597 70.2875 48.023 70.4586 47.9986C70.6297 47.9741 70.813 47.9619 70.9963 47.9619C71.2162 47.9619 71.4484 47.9864 71.6683 48.0352C71.9005 48.0841 72.096 48.1696 72.2793 48.2796C72.4626 48.3896 72.6092 48.5484 72.7192 48.744C72.8292 48.9395 72.8903 49.1716 72.8903 49.4649L72.8658 51.8233C72.8658 51.8233 72.8658 51.9088 72.8903 51.9455C72.9025 51.9821 72.9269 52.0188 72.9636 52.0432C73.0003 52.0677 73.0369 52.0921 73.0858 52.1043C73.1347 52.1165 73.1958 52.1288 73.2569 52.1288C73.2935 52.1288 73.3424 52.1288 73.4157 52.1043C73.489 52.0921 73.5624 52.0799 73.6357 52.0677H73.7334V52.3976C73.7334 52.3976 73.6235 52.4709 73.5379 52.5198C73.4524 52.5687 73.3546 52.6053 73.2446 52.6542C73.1347 52.6909 73.0247 52.7275 72.9025 52.7642C72.7803 52.7886 72.6703 52.8131 72.5604 52.8131C72.4259 52.8131 72.2915 52.8008 72.1693 52.7764C72.0471 52.752 71.9494 52.7031 71.8638 52.6542C71.7783 52.5931 71.705 52.5198 71.6561 52.422C71.6072 52.3243 71.5828 52.2021 71.5828 52.0432C71.4606 52.2265 71.3384 52.3609 71.2162 52.4587C71.0818 52.5564 70.9596 52.642 70.8252 52.6909C70.6908 52.7397 70.5686 52.7764 70.4464 52.7886C70.3242 52.8008 70.2142 52.8131 70.1165 52.8131L70.1653 52.8619ZM70.8985 52.141C70.9596 52.141 71.0329 52.141 71.1062 52.1288C71.1796 52.1288 71.2407 52.0921 71.314 52.0677C71.3751 52.0432 71.4484 51.9943 71.4973 51.9455C71.5584 51.8966 71.6072 51.8355 71.6561 51.7622V50.4058C71.4484 50.4058 71.2529 50.418 71.0818 50.4547C70.9107 50.4914 70.7641 50.5524 70.6419 50.6258C70.5197 50.6991 70.4219 50.8091 70.3608 50.9313C70.2998 51.0534 70.2631 51.2001 70.2631 51.3712C70.2631 51.5178 70.2875 51.64 70.3242 51.7377C70.3608 51.8355 70.4097 51.921 70.4708 51.9699C70.5319 52.031 70.6052 52.0677 70.6786 52.0921C70.7519 52.1165 70.8374 52.1288 70.9107 52.1288L70.8985 52.141Z" fill="#00719E"/>
<path d="M74.4903 52.4831L74.9546 52.3364C74.9546 52.3364 75.0646 52.2875 75.1012 52.2387C75.1379 52.1898 75.1623 52.1409 75.1623 52.0676V49.1716C75.1623 49.086 75.1379 49.0249 75.089 48.9638C75.0401 48.9027 74.9668 48.8539 74.8691 48.8172L74.478 48.6706V48.4384L76.4087 48.0596V48.8294C76.5309 48.6583 76.6531 48.5117 76.7875 48.414C76.9097 48.304 77.0319 48.2307 77.1663 48.1696C77.2885 48.1085 77.4107 48.0718 77.5329 48.0596C77.6551 48.0352 77.7773 48.0352 77.8995 48.0352C78.1072 48.0352 78.3027 48.0718 78.4738 48.1329C78.6571 48.194 78.8037 48.2918 78.9382 48.4262C79.0726 48.5606 79.1703 48.7317 79.2436 48.9394C79.317 49.1471 79.3536 49.3915 79.3536 49.6848V52.0676C79.3536 52.1409 79.3781 52.2142 79.4147 52.2509C79.4514 52.2875 79.5125 52.3364 79.5614 52.3486L79.9646 52.4953V52.7763H77.4352V52.4953L77.8628 52.3486C77.8628 52.3486 77.9606 52.2998 78.0095 52.2509C78.0461 52.202 78.0706 52.1409 78.0706 52.0554V50.1125C78.0706 49.9047 78.0706 49.7092 78.0461 49.5504C78.0217 49.3915 77.9973 49.2571 77.9362 49.1471C77.8751 49.0372 77.8017 48.9638 77.704 48.9027C77.6062 48.8416 77.4596 48.8172 77.2885 48.8172C77.2152 48.8172 77.1419 48.8172 77.0564 48.8172C76.983 48.8172 76.8975 48.8416 76.8242 48.8661C76.7509 48.8905 76.6776 48.9272 76.6042 48.9883C76.5309 49.0372 76.4698 49.1105 76.4209 49.196V52.0676C76.4209 52.1409 76.4454 52.202 76.482 52.2387C76.5187 52.2753 76.5798 52.312 76.6287 52.3364L76.9953 52.4831V52.7641H74.4658V52.4831H74.4903Z" fill="#00719E"/>
<path d="M87.2725 52.9107C86.8448 52.9107 86.4783 52.8618 86.1483 52.7518C85.8306 52.6418 85.5496 52.5074 85.3418 52.3241C85.1219 52.1408 84.963 51.9453 84.8531 51.7131C84.7431 51.481 84.682 51.2366 84.682 50.9922V46.9598C84.682 46.8864 84.6576 46.8253 84.6209 46.7765C84.5842 46.7276 84.5231 46.6909 84.462 46.6787L83.8633 46.5076V46.2144H86.8693V46.5076L86.2705 46.6787C86.2094 46.7031 86.1483 46.7276 86.1117 46.7887C86.075 46.8376 86.0506 46.8987 86.0506 46.972V50.5645C86.0506 50.6745 86.0506 50.7845 86.075 50.9067C86.0872 51.0289 86.1239 51.151 86.1606 51.2732C86.1972 51.3954 86.2583 51.5176 86.3316 51.6276C86.4049 51.7376 86.5027 51.8353 86.6127 51.9209C86.7226 52.0064 86.8693 52.0797 87.0281 52.1286C87.187 52.1775 87.3825 52.2019 87.6025 52.2019C87.8224 52.2019 88.0179 52.1775 88.1768 52.1286C88.3478 52.0797 88.4945 52.0064 88.6167 51.9209C88.7389 51.8353 88.8366 51.7376 88.9222 51.6154C89.0077 51.5054 89.0688 51.3832 89.1177 51.261C89.1666 51.1388 89.2032 51.0166 89.2276 50.8944C89.2521 50.7722 89.2643 50.6623 89.2643 50.5523V46.9842C89.2643 46.9109 89.2399 46.8498 89.191 46.8009C89.1421 46.752 89.0932 46.7154 89.0321 46.7031L88.4334 46.4954V46.2021H90.6818V46.4954L90.083 46.7031C90.083 46.7031 89.973 46.752 89.9242 46.8009C89.8753 46.8498 89.8631 46.9109 89.8631 46.9842V50.7967C89.8631 51.0533 89.8264 51.2855 89.7409 51.4932C89.6676 51.7009 89.5576 51.8842 89.4232 52.0309C89.2887 52.1775 89.1421 52.3241 88.9588 52.4341C88.7877 52.5441 88.6045 52.6418 88.4089 52.7029C88.2134 52.7762 88.0301 52.8251 87.8346 52.8618C87.6391 52.8984 87.468 52.9107 87.297 52.9107H87.2725Z" fill="#00719E"/>
<path d="M91.5488 52.4831L92.0132 52.3364C92.0132 52.3364 92.1232 52.2875 92.1598 52.2387C92.1965 52.1898 92.2209 52.1409 92.2209 52.0676V49.1716C92.2209 49.086 92.1965 49.0249 92.1476 48.9638C92.0987 48.9027 92.0254 48.8539 91.9277 48.8172L91.5366 48.6706V48.4384L93.4673 48.0596V48.8294C93.5895 48.6583 93.7117 48.5117 93.8461 48.414C93.9683 48.304 94.0905 48.2307 94.2249 48.1696C94.3471 48.1085 94.4693 48.0718 94.5915 48.0596C94.7137 48.0352 94.8359 48.0352 94.9581 48.0352C95.1658 48.0352 95.3613 48.0718 95.5324 48.1329C95.7157 48.194 95.8623 48.2918 95.9967 48.4262C96.1312 48.5606 96.2289 48.7317 96.3022 48.9394C96.3756 49.1471 96.4122 49.3915 96.4122 49.6848V52.0676C96.4122 52.1409 96.4367 52.2142 96.4733 52.2509C96.51 52.2875 96.5711 52.3364 96.6199 52.3486L97.0232 52.4953V52.7763H94.4938V52.4953L94.9214 52.3486C94.9214 52.3486 95.0192 52.2998 95.0681 52.2509C95.1047 52.202 95.1292 52.1409 95.1292 52.0554V50.1125C95.1292 49.9047 95.1292 49.7092 95.1047 49.5504C95.0803 49.3915 95.0558 49.2571 94.9947 49.1471C94.9337 49.0372 94.8603 48.9638 94.7626 48.9027C94.6648 48.8416 94.5182 48.8172 94.3471 48.8172C94.2738 48.8172 94.2005 48.8172 94.1149 48.8172C94.0416 48.8172 93.9561 48.8416 93.8828 48.8661C93.8095 48.8905 93.7361 48.9272 93.6628 48.9883C93.5895 49.0372 93.5284 49.1105 93.4795 49.196V52.0676C93.4795 52.1409 93.504 52.202 93.5406 52.2387C93.5773 52.2753 93.6384 52.312 93.6873 52.3364L94.0539 52.4831V52.7641H91.5244V52.4831H91.5488Z" fill="#00719E"/>
<path d="M97.9883 52.4831L98.4771 52.3365C98.5382 52.312 98.587 52.2876 98.6359 52.2387C98.6726 52.1898 98.697 52.141 98.697 52.0676V49.1716C98.697 49.0861 98.6726 49.025 98.6359 48.9639C98.5993 48.9028 98.5137 48.8661 98.4037 48.8172L98.0127 48.6706V48.4384L99.9678 48.0596V52.0554C99.9678 52.1287 99.9923 52.1898 100.029 52.2265C100.066 52.2631 100.114 52.2998 100.188 52.3242L100.64 52.4709V52.7519H98.0005V52.4709L97.9883 52.4831ZM99.2713 47.131C99.1613 47.131 99.0636 47.1065 98.9658 47.0699C98.8681 47.0332 98.7825 46.9721 98.7214 46.911C98.6604 46.8499 98.5993 46.7644 98.5504 46.6666C98.5137 46.5689 98.4893 46.4711 98.4893 46.3611C98.4893 46.2511 98.5137 46.1534 98.5504 46.0679C98.587 45.9701 98.6481 45.8968 98.7214 45.8235C98.7948 45.7502 98.8681 45.7013 98.9658 45.6646C99.0636 45.628 99.1613 45.6035 99.2713 45.6035C99.3813 45.6035 99.4913 45.628 99.5768 45.6646C99.6746 45.7013 99.7601 45.7624 99.8334 45.8235C99.9067 45.8968 99.9678 45.9701 100.004 46.0679C100.041 46.1656 100.066 46.2634 100.066 46.3611C100.066 46.4589 100.041 46.5689 100.004 46.6666C99.9678 46.7644 99.9067 46.8377 99.8334 46.911C99.7601 46.9843 99.6746 47.0332 99.5768 47.0699C99.4791 47.1065 99.3813 47.131 99.2713 47.131Z" fill="#00719E"/>
<path d="M101.863 48.8665C101.863 48.8665 101.826 48.8054 101.814 48.7687C101.801 48.732 101.777 48.7198 101.753 48.6954C101.728 48.6709 101.691 48.6587 101.655 48.6343C101.618 48.6098 101.569 48.5854 101.508 48.561L101.19 48.4266V48.1455H103.793V48.4266L103.109 48.6098L104.013 50.8338L104.258 51.4326L105.296 48.6465L104.624 48.4388V48.1577H106.469V48.4388L106.152 48.5976C106.054 48.6465 105.993 48.6832 105.932 48.7198C105.883 48.7565 105.834 48.8176 105.797 48.8909L104.6 51.7869L104.086 52.7889H103.573L101.899 48.8665H101.863Z" fill="#00719E"/>
<path d="M109.389 52.8619C109.047 52.8619 108.729 52.813 108.448 52.703C108.167 52.6053 107.923 52.4464 107.715 52.2387C107.507 52.031 107.348 51.7866 107.238 51.4933C107.128 51.2 107.067 50.8579 107.067 50.4669C107.067 50.1492 107.116 49.8314 107.226 49.5382C107.336 49.2449 107.495 48.9761 107.691 48.7561C107.898 48.5362 108.143 48.3529 108.436 48.2185C108.729 48.0841 109.059 48.0107 109.426 48.0107C109.743 48.0107 110.012 48.0596 110.257 48.1696C110.501 48.2796 110.697 48.414 110.868 48.5728C111.027 48.7439 111.161 48.9272 111.246 49.1472C111.332 49.3671 111.381 49.5871 111.381 49.807C111.381 49.8314 111.381 49.8681 111.381 49.917C111.381 49.9659 111.381 50.0147 111.381 50.0636V50.198C111.381 50.198 111.369 50.2713 111.356 50.2958H108.399C108.399 50.8945 108.522 51.3467 108.766 51.6522C109.01 51.9576 109.389 52.1165 109.902 52.1165C110.073 52.1165 110.22 52.1043 110.367 52.0676C110.501 52.031 110.623 51.9943 110.745 51.9576C110.855 51.9088 110.953 51.8599 111.039 51.811C111.124 51.7621 111.198 51.7133 111.271 51.6766H111.381V52.0432C111.271 52.1409 111.149 52.2265 111.014 52.3242C110.868 52.422 110.721 52.5075 110.55 52.5808C110.379 52.6542 110.196 52.7275 110 52.7763C109.805 52.8252 109.609 52.8497 109.401 52.8497L109.389 52.8619ZM110.086 49.9048C110.086 49.7093 110.086 49.5137 110.049 49.3427C110.024 49.1716 109.988 49.025 109.939 48.8905C109.878 48.7683 109.805 48.6584 109.719 48.5851C109.621 48.5117 109.499 48.4751 109.352 48.4751C109.206 48.4751 109.084 48.5117 108.961 48.5728C108.851 48.6339 108.754 48.7317 108.68 48.8539C108.607 48.9761 108.546 49.1227 108.497 49.306C108.46 49.4771 108.424 49.6848 108.424 49.8925H110.073L110.086 49.9048Z" fill="#00719E"/>
<path d="M112.445 52.4836L112.921 52.3369C112.921 52.3369 113.031 52.288 113.068 52.2392C113.105 52.1903 113.129 52.1414 113.129 52.0681V49.1843C113.129 49.1843 113.129 49.0988 113.117 49.0621C113.117 49.0254 113.092 48.9888 113.068 48.9643C113.044 48.9399 113.019 48.9032 112.983 48.8788C112.946 48.8544 112.897 48.8299 112.848 48.8177L112.408 48.6711V48.4389L114.363 48.0601V49.0988C114.437 48.9766 114.51 48.8544 114.595 48.7322C114.681 48.61 114.779 48.4878 114.889 48.3778C114.999 48.2678 115.121 48.1823 115.255 48.1212C115.39 48.0479 115.549 48.0234 115.732 48.0234C115.83 48.0234 115.903 48.0234 115.976 48.0234C116.05 48.0234 116.111 48.0357 116.16 48.0601C116.208 48.0845 116.27 48.0845 116.318 48.109C116.367 48.1212 116.416 48.1456 116.477 48.1579V49.5753H116.086L115.891 49.2209C115.891 49.2209 115.854 49.1721 115.817 49.1476C115.781 49.1232 115.744 49.0988 115.695 49.0865C115.646 49.0621 115.597 49.0499 115.549 49.0377C115.5 49.0377 115.451 49.0254 115.402 49.0254C115.304 49.0254 115.219 49.0254 115.133 49.0377C115.048 49.0377 114.962 49.0743 114.889 49.0988C114.803 49.1354 114.73 49.1721 114.657 49.2332C114.583 49.2943 114.51 49.3676 114.424 49.4653V52.0559C114.424 52.1292 114.449 52.1903 114.486 52.2392C114.522 52.288 114.571 52.3125 114.644 52.3369L115.206 52.4836V52.7646H112.457V52.4836H112.445Z" fill="#00719E"/>
<path d="M119.129 52.8985C118.933 52.8985 118.762 52.8985 118.603 52.8619C118.444 52.8252 118.298 52.813 118.163 52.7886C118.029 52.7519 117.907 52.7275 117.797 52.6908C117.687 52.6542 117.577 52.6175 117.467 52.5931V51.2367H117.858L118.041 51.7621C118.041 51.7621 118.078 51.8354 118.102 51.8721C118.127 51.9088 118.163 51.9332 118.188 51.9576C118.224 51.9821 118.261 52.0065 118.286 52.031C118.322 52.0554 118.359 52.0676 118.383 52.0921C118.432 52.1165 118.505 52.1532 118.591 52.1898C118.677 52.2265 118.762 52.2509 118.86 52.2753C118.958 52.2998 119.055 52.3242 119.153 52.3487C119.251 52.3731 119.336 52.3731 119.422 52.3731C119.52 52.3731 119.605 52.3731 119.691 52.3364C119.776 52.312 119.85 52.2754 119.911 52.2265C119.972 52.1776 120.021 52.1043 120.057 52.0187C120.094 51.9332 120.106 51.8232 120.106 51.6888C120.106 51.5788 120.082 51.4933 120.033 51.42C119.984 51.3467 119.911 51.2856 119.837 51.2367C119.752 51.1878 119.666 51.1389 119.556 51.1145C119.459 51.0778 119.349 51.0534 119.251 51.0167C119.092 50.9679 118.958 50.9312 118.848 50.8945C118.738 50.8579 118.615 50.8212 118.493 50.7846C118.347 50.7357 118.212 50.6746 118.09 50.6013C117.968 50.528 117.87 50.4302 117.797 50.3202C117.711 50.2103 117.65 50.0881 117.613 49.9414C117.577 49.7948 117.552 49.6359 117.552 49.4649C117.552 49.2571 117.601 49.0616 117.711 48.8783C117.809 48.695 117.956 48.5484 118.139 48.414C118.322 48.2796 118.53 48.1818 118.774 48.1207C119.019 48.0474 119.275 48.0107 119.556 48.0107C119.727 48.0107 119.874 48.0107 120.008 48.023C120.143 48.0352 120.253 48.0474 120.363 48.0596C120.473 48.0718 120.571 48.0963 120.668 48.1207L120.986 48.194L121.059 49.5504H120.656L120.448 49.0372C120.424 48.9761 120.387 48.915 120.326 48.8539C120.265 48.805 120.204 48.7561 120.143 48.7195C120.094 48.695 120.033 48.6706 119.96 48.6462C119.898 48.6217 119.825 48.5973 119.752 48.5851C119.679 48.5606 119.605 48.5484 119.532 48.5362C119.459 48.5362 119.385 48.524 119.312 48.524C119.251 48.524 119.19 48.524 119.116 48.5606C119.043 48.5851 118.982 48.6217 118.921 48.6706C118.86 48.7195 118.811 48.7806 118.774 48.8539C118.738 48.9272 118.713 49.025 118.713 49.1349C118.713 49.2449 118.738 49.3427 118.774 49.4282C118.811 49.5137 118.872 49.5748 118.933 49.6237C118.994 49.6726 119.068 49.7215 119.153 49.7459C119.239 49.7826 119.312 49.807 119.397 49.8314C119.532 49.8803 119.666 49.917 119.789 49.9536C119.911 49.9903 120.008 50.027 120.094 50.0514C120.265 50.1003 120.424 50.1736 120.571 50.2347C120.717 50.308 120.839 50.3935 120.949 50.4913C121.059 50.5891 121.133 50.699 121.194 50.8334C121.255 50.9679 121.279 51.1267 121.279 51.31C121.279 51.5911 121.218 51.8232 121.096 52.0187C120.974 52.2143 120.815 52.3853 120.619 52.5075C120.424 52.6419 120.192 52.7275 119.935 52.8008C119.679 52.8619 119.422 52.8985 119.141 52.8985H119.129Z" fill="#00719E"/>
<path d="M122.317 52.4831L122.806 52.3365C122.867 52.312 122.916 52.2876 122.965 52.2387C123.002 52.1898 123.026 52.141 123.026 52.0676V49.1716C123.026 49.0861 123.002 49.025 122.965 48.9639C122.928 48.9028 122.843 48.8661 122.733 48.8172L122.342 48.6706V48.4384L124.297 48.0596V52.0554C124.297 52.1287 124.321 52.1898 124.358 52.2265C124.395 52.2631 124.444 52.2998 124.517 52.3242L124.969 52.4709V52.7519H122.33V52.4709L122.317 52.4831ZM123.6 47.131C123.49 47.131 123.393 47.1065 123.295 47.0699C123.197 47.0332 123.112 46.9721 123.051 46.911C122.989 46.8499 122.928 46.7644 122.879 46.6666C122.843 46.5689 122.818 46.4711 122.818 46.3611C122.818 46.2511 122.843 46.1534 122.879 46.0679C122.916 45.9701 122.977 45.8968 123.051 45.8235C123.124 45.7502 123.197 45.7013 123.295 45.6646C123.393 45.628 123.49 45.6035 123.6 45.6035C123.71 45.6035 123.82 45.628 123.906 45.6646C124.004 45.7013 124.089 45.7624 124.163 45.8235C124.236 45.8968 124.297 45.9701 124.334 46.0679C124.37 46.1656 124.395 46.2634 124.395 46.3611C124.395 46.4589 124.37 46.5689 124.334 46.6666C124.297 46.7644 124.236 46.8377 124.163 46.911C124.089 46.9843 124.004 47.0332 123.906 47.0699C123.808 47.1065 123.71 47.131 123.6 47.131Z" fill="#00719E"/>
<path d="M127.828 52.8494C127.633 52.8494 127.437 52.8249 127.266 52.7883C127.095 52.7516 126.949 52.6783 126.826 52.5928C126.704 52.5072 126.606 52.4095 126.533 52.2873C126.46 52.1651 126.423 52.0307 126.423 51.884V48.6948H125.678V48.4015C125.8 48.377 125.91 48.3404 126.008 48.3037C126.105 48.2671 126.191 48.2182 126.264 48.1693C126.338 48.1082 126.399 48.0349 126.435 47.9494C126.472 47.8638 126.509 47.7416 126.509 47.6072L126.545 47.0207L127.682 46.8496V48.1938H129.295L129.148 48.707H127.682V51.6519C127.682 51.7496 127.718 51.8352 127.779 51.8963C127.841 51.9574 127.914 52.0307 128.012 52.0796C128.109 52.1284 128.195 52.1651 128.293 52.1895C128.39 52.214 128.476 52.2262 128.562 52.2262C128.61 52.2262 128.659 52.2262 128.72 52.2262C128.769 52.2262 128.818 52.214 128.867 52.2018C128.916 52.2018 128.965 52.1895 129.001 52.1773L129.124 52.1407H129.234V52.4584C129.234 52.4584 129.111 52.5195 129.014 52.5683C128.916 52.6172 128.806 52.6539 128.684 52.7028C128.562 52.7516 128.427 52.7883 128.28 52.8127C128.134 52.8372 127.975 52.8616 127.816 52.8616L127.828 52.8494Z" fill="#00719E"/>
<path d="M131.055 55.0002C130.933 55.0002 130.823 55.0002 130.725 54.9757C130.627 54.9635 130.53 54.9513 130.456 54.9269C130.371 54.9024 130.297 54.8902 130.236 54.8658C130.175 54.8413 130.114 54.8169 130.077 54.7924L130.31 53.8027H130.432C130.432 53.8027 130.505 53.8515 130.554 53.8638C130.603 53.876 130.652 53.9004 130.701 53.9249C130.75 53.9493 130.811 53.9615 130.859 53.9737C130.908 53.986 130.969 54.0104 131.018 54.0104C131.067 54.0104 131.116 54.0348 131.165 54.0348C131.214 54.0348 131.251 54.0348 131.275 54.0348C131.312 54.0348 131.348 54.0348 131.385 54.0348C131.422 54.0348 131.458 54.0348 131.507 54.0226C131.556 54.0104 131.58 54.0104 131.617 53.9982C131.654 53.9982 131.678 53.9737 131.703 53.9493C131.788 53.8882 131.861 53.8271 131.91 53.7782C131.959 53.7293 132.008 53.656 132.045 53.5705C132.094 53.485 132.13 53.3872 132.179 53.265C132.228 53.1428 132.289 52.984 132.362 52.7884L131.874 52.1286L130.444 48.8171C130.42 48.756 130.371 48.7071 130.322 48.6583C130.261 48.6216 130.187 48.5849 130.102 48.5483L129.784 48.4139V48.1328H132.338V48.4139L131.703 48.5972L132.692 51.0288L132.888 51.4932L133.89 48.6338L133.267 48.4261V48.145H135.063V48.4261L134.733 48.5849C134.648 48.6216 134.574 48.6705 134.525 48.7071C134.464 48.7438 134.428 48.7927 134.403 48.8538L132.619 53.6194C132.509 53.9126 132.387 54.157 132.277 54.3403C132.155 54.5236 132.033 54.658 131.898 54.7558C131.764 54.8535 131.629 54.9146 131.495 54.9513C131.36 54.988 131.214 55.0002 131.067 55.0002H131.055Z" fill="#00719E"/>
</g>
<defs>
<clipPath id="clip0_86_15851">
<rect width="135.062" height="55" fill="white"/>
</clipPath>
</defs>
</svg>
