<?xml version="1.0" standalone="no"?><!DOCTYPE svg PUBLIC "-//W3C//DTD SVG 1.1//EN" "http://www.w3.org/Graphics/SVG/1.1/DTD/svg11.dtd"><svg t="1750821501206" class="icon" viewBox="0 0 1024 1024" version="1.1" xmlns="http://www.w3.org/2000/svg" p-id="11137" xmlns:xlink="http://www.w3.org/1999/xlink" width="200" height="200"><path d="M464.6 721.5c0-0.1 0-0.1 0 0L326.5 465.4 108.7 626.6v144.8c0 62.1 42.8 112.5 95.3 112.5h348.7c-0.7-0.9-1.4-1.8-1.9-2.8l-86.2-159.6zM731 530.8L501.5 717.9 580.9 865c3.4 6.3 2.4 13.8-1.9 19h226.6c52.6 0 95.3-50.5 95.3-112.5v-56.1c-2-0.9-3.9-2.3-5.5-4L731 530.8z" p-id="11138"></path><path d="M805.6 102H204c-71.4 0-129.5 65.8-129.5 146.7v522.7c0 80.9 58.1 146.7 129.5 146.7h601.5c71.4 0 129.5-65.8 129.5-146.7V248.7c0-80.9-58-146.7-129.4-146.7z m113.9 610.4c-0.5 0.5-1 0.8-1.6 1.2v57.8C918 843 867.6 901 805.6 901H204c-62 0-112.4-58-112.4-129.6V635c-5.2 0-10.4-2.3-13.7-6.9-5.6-7.6-4-18.3 3.6-23.9l10.2-7.5v-348c0-71.6 50.3-129.6 112.4-129.6h601.5c62.1 0 112.4 58 112.4 129.6v436.7l2.7 3c6.3 6.9 5.8 17.7-1.2 24z" p-id="11139"></path><path d="M108.7 248.7c0-62.1 42.8-112.5 95.3-112.5h601.5c52.6 0 95.3 50.5 95.3 112.5v417.9l17.1 18.8V248.7c0-71.6-50.3-129.6-112.4-129.6H204c-62.1 0-112.4 58-112.4 129.6v348.1l17.1-12.6V248.7zM900.9 715.3v56.1c0 62.1-42.8 112.5-95.3 112.5H578.9c-1.4 1.6-3 3.1-5 4.1-2.6 1.4-5.4 2.1-8.1 2.1-5 0-9.8-2.2-13.1-6.2H204c-52.6 0-95.3-50.5-95.3-112.5V626.6l-6.9 5.1c-3.1 2.3-6.6 3.3-10.2 3.3v136.4C91.6 843 142 901 204 901h601.5c62.1 0 112.4-58 112.4-129.6v-57.8c-5 3.6-11.5 4.2-17 1.7z" p-id="11140"></path><path d="M464.6 721.4c-3.7-7-2-15.9 4.4-21.1l16-13-137.9-255.5c-2.4-4.4-6.5-7.5-11.3-8.6-4.8-1.1-9.9 0-13.9 2.9l-213.2 158v42.5l217.7-161.2 138.2 256zM580.9 864.9l-79.4-147.1-10.9 8.9c-3.2 2.6-7 3.8-10.8 3.8-5 0-9.9-2.1-13.2-6.3-0.7-0.9-1.4-1.9-1.9-2.9L550.9 881c0.6 1 1.2 1.9 1.9 2.8H579c4.3-5.1 5.3-12.5 1.9-18.9zM81.5 604.3c-7.6 5.6-9.2 16.3-3.6 23.9 3.3 4.5 8.5 6.9 13.7 6.9v-38.3l-10.1 7.5zM565.8 890.1c2.7 0 5.5-0.7 8.1-2.1 2-1.1 3.7-2.5 5-4.1h-26.2c3.3 4 8.2 6.2 13.1 6.2z" p-id="11141"></path><path d="M101.8 631.7l6.9-5.1v-42.5l-17.1 12.6V635c3.6 0 7.1-1 10.2-3.3zM464.6 721.5c0-0.1 0-0.1 0 0zM722 494.1L485 687.3l16.5 30.6L731 530.8l164.4 180.5c1.6 1.7 3.5 3.1 5.5 4v-48.7L745.4 495.8c-6.1-6.7-16.4-7.5-23.4-1.7zM918 685.3v28.3c0.5-0.4 1.1-0.7 1.6-1.2 7-6.3 7.5-17.1 1.1-24.1l-2.7-3zM900.9 666.6v48.7c5.5 2.5 12 1.9 17.1-1.7v-28.3l-17.1-18.7zM464.6 721.4c0.5 1 1.2 2 1.9 2.9 3.4 4.1 8.3 6.3 13.2 6.3 3.8 0 7.6-1.3 10.8-3.8l10.9-8.9-16.4-30.6-16 13c-6.4 5.2-8.1 14.1-4.4 21.1z" p-id="11142"></path><path d="M582.5 324.4a58.5 57.7 0 1 0 117 0 58.5 57.7 0 1 0-117 0Z" p-id="11143"></path></svg>