<?xml version="1.0" standalone="no"?><!DOCTYPE svg PUBLIC "-//W3C//DTD SVG 1.1//EN" "http://www.w3.org/Graphics/SVG/1.1/DTD/svg11.dtd"><svg t="1749719329524" class="icon" viewBox="0 0 1024 1024" version="1.1" xmlns="http://www.w3.org/2000/svg" p-id="7228" xmlns:xlink="http://www.w3.org/1999/xlink" width="200" height="200"><path d="M476.16 266.24V256c0-5.12 0-5.12-5.12-5.12H358.4c-5.12 0-5.12 0-5.12 5.12v2.56c0 12.8 0 12.8 12.8 12.8 15.36 0 25.6 7.68 25.6 20.48 2.56 7.68 2.56 17.92 0 25.6-2.56 20.48-7.68 38.4-10.24 58.88-10.24 53.76-20.48 107.52-28.16 161.28-5.12 28.16-10.24 53.76-15.36 81.92 0 2.56 0 5.12-2.56 5.12s-2.56-2.56-2.56-5.12c-2.56-17.92-7.68-38.4-10.24-56.32-17.92-87.04-33.28-174.08-51.2-261.12-2.56-15.36 5.12-25.6 20.48-28.16h10.24c5.12 0 5.12 0 5.12-5.12v-10.24c0-5.12 0-7.68-7.68-7.68H168.96c-5.12 0-5.12 2.56-5.12 5.12v12.8c0 2.56 0 5.12 5.12 2.56 12.8 0 20.48 5.12 25.6 17.92 2.56 5.12 2.56 10.24 5.12 12.8 5.12 30.72 12.8 61.44 17.92 92.16 2.56 7.68 5.12 15.36 2.56 23.04-10.24 58.88-20.48 117.76-30.72 179.2-2.56 7.68-2.56 15.36-5.12 23.04-5.12-2.56-5.12-2.56-5.12-5.12-7.68-43.52-15.36-84.48-25.6-128-10.24-53.76-20.48-104.96-30.72-158.72-2.56-12.8-5.12-25.6-5.12-40.96 0-15.36 7.68-20.48 23.04-20.48h2.56c2.56 0 5.12 0 5.12-2.56v-12.8c0-5.12-2.56-5.12-5.12-5.12H7.68c-5.12 2.56-7.68 5.12-7.68 7.68v12.8c0 2.56 0 2.56 2.56 2.56 7.68 0 15.36 2.56 23.04 2.56 2.56 0 2.56 0 2.56 2.56 5.12 12.8 12.8 23.04 15.36 35.84 10.24 53.76 20.48 110.08 33.28 163.84 12.8 61.44 25.6 122.88 35.84 186.88 7.68 38.4 15.36 76.8 23.04 117.76 0 2.56 2.56 5.12 5.12 5.12h23.04c2.56 0 5.12 0 5.12-5.12 2.56-10.24 2.56-20.48 5.12-28.16 12.8-56.32 23.04-112.64 35.84-168.96 5.12-30.72 12.8-61.44 20.48-94.72 0-2.56 0-2.56 2.56-5.12 2.56 0 2.56 2.56 2.56 5.12 12.8 69.12 28.16 138.24 40.96 204.8 5.12 28.16 10.24 56.32 17.92 84.48 0 2.56 2.56 5.12 5.12 5.12h20.48c2.56 0 5.12 0 5.12-5.12l7.68-30.72c15.36-69.12 28.16-138.24 43.52-207.36 12.8-64 28.16-130.56 40.96-194.56 2.56-10.24 2.56-20.48 7.68-30.72l15.36-38.4c0-2.56 2.56-2.56 5.12-5.12 10.24 0 17.92-2.56 28.16-2.56 2.56 5.12 2.56 2.56 2.56 0zM711.68 576c-10.24-30.72-25.6-56.32-48.64-79.36-10.24-10.24-20.48-20.48-33.28-30.72-15.36-12.8-28.16-23.04-43.52-35.84-12.8-10.24-25.6-20.48-35.84-33.28-15.36-17.92-23.04-38.4-23.04-61.44v-12.8-7.68c0-10.24 2.56-20.48 10.24-30.72 7.68-12.8 23.04-17.92 38.4-20.48h12.8c5.12 0 10.24 0 15.36 2.56 28.16 5.12 43.52 23.04 53.76 48.64 7.68 15.36 10.24 33.28 12.8 51.2 2.56 10.24 2.56 20.48 2.56 30.72v28.16c0 2.56 0 2.56 2.56 2.56 5.12 0 10.24 2.56 15.36 0v-25.6-158.72c-7.68-2.56-12.8-2.56-15.36 5.12l-7.68 15.36c-2.56 5.12-5.12 5.12-7.68 2.56-20.48-15.36-43.52-28.16-71.68-28.16-12.8 0-25.6 0-38.4 2.56-46.08 12.8-76.8 61.44-79.36 104.96v25.6c0 10.24 2.56 20.48 5.12 30.72 12.8 40.96 38.4 74.24 69.12 102.4 12.8 12.8 28.16 23.04 43.52 33.28 17.92 15.36 35.84 33.28 48.64 53.76 10.24 15.36 20.48 33.28 23.04 53.76 2.56 15.36 5.12 28.16 2.56 43.52 0 12.8-2.56 25.6-7.68 35.84-10.24 23.04-30.72 33.28-53.76 33.28-5.12 2.56-10.24 2.56-15.36 0h-7.68c-20.48-5.12-38.4-15.36-51.2-33.28-17.92-23.04-25.6-48.64-30.72-79.36-2.56-15.36-2.56-33.28-2.56-48.64 0-2.56 0-2.56-2.56-2.56h-15.36v184.32h12.8c2.56-2.56 2.56-5.12 2.56-5.12 2.56-5.12 5.12-12.8 7.68-20.48 2.56-5.12 2.56-5.12 7.68-2.56 25.6 15.36 51.2 28.16 81.92 28.16h17.92c12.8 0 25.6-2.56 35.84-5.12 30.72-7.68 51.2-25.6 66.56-53.76 10.24-20.48 12.8-40.96 12.8-61.44v-25.6c0-20.48-5.12-38.4-10.24-56.32zM1018.88 256c0-5.12 0-5.12-5.12-5.12h-148.48c-5.12 0-5.12 2.56-5.12 5.12v10.24c0 2.56 2.56 5.12 5.12 5.12h12.8c10.24 0 17.92 5.12 23.04 15.36 2.56 5.12 2.56 12.8 2.56 17.92v384c0 10.24 0 20.48-2.56 30.72-5.12 25.6-20.48 40.96-46.08 43.52-33.28 2.56-56.32-17.92-58.88-53.76 0-2.56 0-5.12 5.12-5.12 17.92-2.56 33.28-10.24 38.4-30.72 2.56-12.8 2.56-23.04 0-35.84-2.56-7.68-7.68-15.36-17.92-17.92-10.24-2.56-23.04-5.12-33.28 0-17.92 5.12-25.6 20.48-28.16 38.4-2.56 25.6 2.56 48.64 12.8 71.68 12.8 28.16 33.28 48.64 61.44 56.32 17.92 5.12 35.84 2.56 53.76 0 28.16-5.12 51.2-17.92 69.12-40.96 15.36-20.48 20.48-46.08 20.48-71.68v-184.32-48.64-143.36c0-17.92 10.24-25.6 28.16-25.6 5.12 0 10.24 2.56 12.8 0 2.56-5.12 0-10.24 0-15.36z" fill="" p-id="7229"></path><path d="M476.16 770.56v-176.64-5.12c-2.56 2.56 0 2.56 0 5.12v176.64zM476.16 593.92V591.36v2.56zM696.32 248.32v179.2c2.56-2.56 0-2.56 0-5.12V248.32v-5.12 5.12zM693.76 427.52v-5.12-174.08-5.12 184.32zM473.6 345.6c-2.56 7.68-2.56 17.92 0 25.6v-25.6zM473.6 371.2v-25.6 25.6zM601.6 755.2h-17.92 17.92zM601.6 755.2h-17.92 17.92zM491.52 588.8c-5.12-2.56-10.24-2.56-15.36 0h15.36zM478.72 588.8h15.36-15.36zM529.92 335.36v-12.8 12.8zM529.92 335.36v-12.8 12.8zM578.56 263.68h12.8-12.8zM578.56 263.68h12.8-12.8z" fill="" p-id="7230"></path></svg>